<?xml version="1.0" encoding="UTF-8"?>
<svg id="Layer_1" xmlns="http://www.w3.org/2000/svg" version="1.1" viewBox="0 0 1080 1080">
  <!-- Generator: Adobe Illustrator 29.5.1, SVG Export Plug-In . SVG Version: 2.1.0 Build 141)  -->
  <defs>
    <style>
      .st0 {
        fill: #2a9d90;
      }

      .st1 {
        fill: #ef4848;
      }
    </style>
  </defs>
  <path class="st1" d="M481,688"/>
  <g>
    <path class="st1" d="M320.3,424.5c-.5.4-1.3.5-2.1.6-1,0-1.9.4-2.8.4-1,0-1.9-.3-2.9-.2-1,0-1.9.5-2.8.6-1,0-1.9.1-2.9.2-.9.1-1.9,0-2.9,0-.9.1-1.9,0-2.9.2-.9.1-1.9.5-2.8.6-.9.1-1.9,0-2.9.1s-1.8.7-2.8.8c-.9.1-1.8.6-2.8.7s-2-.4-2.9-.3c-.6,0-.4.7-.4,1.2-.1,1-.4,2-.6,2.9-.1,1-.9,1.9-1,2.8-.1,1,.3,2,.2,2.9-.1.9-.7,1.8-.8,2.8-.1.9-.1,1.8-.3,2.9-.2.5.1.9.8.8,1-.2,1.8-.9,2.6-1,1-.2,1.9-.3,2.7-.4s1.9.3,2.8.1,1.8,0,2.7-.2c.9-.1,1.7-.6,2.7-.7s1.8-.2,2.7-.3c.8,0,1.2.2,1.6.5.4.3,1,.7.9,1.4-.1,1-.5,1.8-.6,2.7-.1,1-.6,1.8-.7,2.7-.1.9-.3,1.8-.4,2.7-.1.9-.2,1.8-.3,2.7s0,1.8-.1,2.7c-.1.9.2,1.8,0,2.8-.1.9-.3,1.8-.5,2.7-.3,1.5-1.7,1.9-3.3,2.1-1,.1-1.9.2-2.7.3-1,.1-1.8.8-2.7,1-.9.1-1.8.3-2.7.4s-1.9-.3-2.8-.1-1.8.2-2.7.3-1.6,1-2.6,1.1c-.6,0-1.2.1-1.2.6-.1,1,.5,2.1.4,3-.1,1-.8,1.9-.9,2.8-.1,1-.7,1.9-.8,2.8-.1.9,0,1.9-.2,2.9-.1.9-.2,1.8-.4,2.9-.2.5.3,1.1,1,1,.9-.2,1.8-.8,2.7-1,.9-.2,1.9,0,2.9-.2.9-.2,1.9-.2,2.9-.3.9-.1,1.8-.9,2.8-1,.9-.1,1.9-.2,2.9-.4s2,.3,2.9.2c.9-.1,1.9-.2,2.9-.3.9-.1,1.8-1.1,2.7-1.2s2,.6,2.9.5,1.9-.3,2.8-.4c1-.1,1.9,0,2.9-.1.8,0,1,0,1.4.3.4.3.4.4.3,1.1-.1,1,.1,1.9,0,2.8s-.6,1.8-.7,2.7-.3,1.8-.4,2.7.3,1.9.2,2.8c-.1.9-.5,1.7-.7,2.7-.1.9,0,1.8-.1,2.7-.1.9-.9,1.7-1,2.6-.1.7,0,1.3-.4,1.8-.5.4-1.1,1-1.9,1.1-.9.1-1.9-.5-2.9-.3s-1.9.1-2.8.3-1.8.6-2.7.7c-.9.1-1.8.4-2.7.6-.9.1-1.9-.3-2.8-.1-.9.1-1.8.5-2.7.6-.9.1-1.9.1-2.8.3s-1.8.5-2.7.6-1.9.2-2.8.3-1.7,1.2-2.6,1.4-1.8.3-2.7.5-1.9-.3-2.9,0c-.9.2-1.8.3-2.7.5-.9.2-1.8.6-2.7.8-.9.2-1.9,0-2.8.2-.9.2-1.8.4-2.7.6-.9.2-1.7,1-2.6,1.2-.9.2-1.9,0-2.8.1-.9.2-1.8.6-2.7.9-.9.2-1.8.6-2.7.8-.9.2-1.8.6-2.7.8-.9.2-1.8.5-2.7.7-.7.2-1.4.2-1.8-.1-.4-.3-.6-1-.4-1.7.1-.9.9-1.7,1-2.7.1-.9,0-1.9.2-2.8s.3-1.8.4-2.7,0-1.9.2-2.8.5-1.8.6-2.7-.5-1.9-.4-2.9c.1-.9.6-1.8.7-2.7s.1-1.9.3-2.8c.1-.9.5-1.8.6-2.7.1-.9.6-1.8.8-2.7s-.3-1.9-.2-2.8-.1-1.9,0-2.8c.1-.9.8-1.8,1-2.7.1-.9.6-1.8.7-2.7.1-.9.2-1.8.3-2.8s-.4-1.9-.3-2.8c.1-.9.7-1.8.8-2.7s0-1.9,0-2.8.2-1.8.3-2.8.3-1.8.4-2.8c.1-.9,0-1.9.1-2.8s.6-1.8.7-2.7.2-1.8.3-2.8c.1-.9.3-1.8.4-2.7s.4-1.8.5-2.7c.1-.9,0-1.9,0-2.8s0-1.9.2-2.8c.1-.9,1-1.7,1.2-2.6.1-.9,0-1.9,0-2.8.1-.9.2-1.8.3-2.8s.7-1.8.8-2.7c.1-.9-.5-1.9-.4-2.9.1-.9.7-1.8.8-2.7s.6-1.8.8-2.7c.1-.9-.5-1.9-.4-2.9.1-.9.6-1.8.7-2.7.1-.7.1-1.6.6-2.1.5-.5,1.5-.2,2.1-.3.9-.2,1.7-.7,2.6-.9.9-.2,1.7-.8,2.6-1,.9-.2,1.9,0,2.8-.2s1.8-.6,2.7-.7c.9-.2,1.9,0,2.8-.2.9-.2,1.9,0,2.8-.2.9-.2,1.8-.5,2.7-.6.9-.2,1.7-1.1,2.6-1.2s1.9.4,2.9.2,1.9,0,2.8-.2c.9-.1,1.8-.4,2.7-.6s1.7-.9,2.7-1.1c.9-.1,1.8-.3,2.7-.4.9-.1,1.9.3,2.8.2s1.8-.3,2.7-.4,1.9,0,2.8-.2,1.8-.1,2.8-.2c.9-.1,1.8-1,2.7-1.1.9-.1,1.9.7,2.9.6.9,0,1.8-.8,2.7-.9.9,0,1.9.2,2.8.1.9,0,1.8-.3,2.8-.4.8,0,1.1.3,1.5.7.4.4.5.5.3,1.2-.1,1,.3,1.9.2,2.8-.1.9-.9,1.8-1,2.6s-.3,1.8-.4,2.7.6,1.9.4,2.8c-.1.9-.6,1.7-.7,2.6-.1.9-.7,1.7-.9,2.6-.1.8,0,1.8,0,2.7-.1.7-.1,1.4-.6,1.9Z"/>
    <path class="st1" d="M338.5,498.8c0-.9-.9-1.8-1-2.7,0-.9.1-1.9,0-2.8s0-1.9,0-2.8c0-.9-.4-1.8-.4-2.8s-.3-1.9-.4-2.8c0-.9.4-1.9.3-2.9s-.9-1.8-1-2.7c0-.9-.2-1.9-.3-2.8,0-.9.7-1.9.6-2.9,0-.9-.5-1.8-.6-2.8,0-.9,0-1.9,0-2.8s-.2-1.9-.3-2.8c0-.9-.6-1.8-.7-2.8s.2-1.9,0-2.8,0-1.9,0-2.8c0-.9-.7-1.8-.8-2.7s.2-1.9,0-2.8,0-1.9-.2-2.8c0-.9-.2-1.9-.3-2.8,0-.9-.6-1.8-.7-2.8s.3-1.9.2-2.8-.2-1.9-.3-2.8-.1-1.9-.2-2.8c0-.9-.5-1.8-.6-2.8s-.2-1.9-.3-2.8.2-1.9.1-2.8c0-.9-.7-1.8-.8-2.7s.3-1.9.2-2.8-.9-1.8-1-2.7c0-.9-.2-1.9-.2-2.8,0-.9,0-1.9,0-2.8,0-.9-.3-1.9-.4-2.8s.3-1.9.2-2.8c0-.9-.7-1.8-.7-2.8,0-1.5,1.1-2.3,2.9-2.4.9,0,1.9.1,2.8,0,.9,0,1.9,0,2.8-.1s1.9-.4,2.8-.4,1.9,0,2.8,0,1.9.1,2.8,0c.9,0,1.9-.5,2.8-.5.9,0,1.9.2,2.8.2s1.9,0,2.8,0,1.9-.2,2.8-.2c.9,0,1.9-.1,2.8-.1,1.6,0,2.1,1,2,2.3,0,.9.2,1.9.2,2.9s-.4,1.9-.4,2.8,0,1.9,0,2.8c0,.9.6,1.9.6,2.8s0,1.9,0,2.8-.7,1.9-.7,2.8,0,1.9,0,2.8.3,1.9.3,2.8c0,.9-.3,1.9-.3,2.8,0,.9.4,1.9.4,2.8,0,.9-.1,1.9-.1,2.8,0,.9.6,1.9.6,2.8,0,.9-.1,1.9-.1,2.8s-.3,1.9-.3,2.8c0,.9.1,1.9.1,2.8s-.1,1.9-.1,2.8c0,.9-.1,1.9-.1,2.8,0,.9-.2,1.9-.2,2.8-.1.3.2.7.6.7.3,0,.3-.4.4-.7.2-.9.4-1.8.6-2.7s.8-1.7,1.1-2.6c.2-.9.6-1.7.9-2.6.2-.9.3-1.8.5-2.7s.4-1.8.6-2.7c.2-.9.9-1.7,1.2-2.6s.2-1.9.4-2.8.7-1.7,1-2.6c.2-.9.8-1.7,1-2.6.2-.9,0-1.9.3-2.8s.9-1.7,1.1-2.6,0-1.9.3-2.8c.2-.9.9-1.7,1.2-2.6.2-.9.1-1.9.4-2.8.2-.9.2-1.9.5-2.7.2-.9,1.3-1.6,1.5-2.5.2-.9.3-1.8.6-2.7.2-.9.5-1.8.7-2.7s.5-1.8.7-2.7c.3-1.3,1.1-2.4,2.7-2.3.9,0,1.8.9,2.7.9.9,0,1.8,0,2.7.1s1.8,0,2.7.1c.9,0,1.8-.2,2.7-.1.9,0,1.8,0,2.7.1s1.8-.3,2.7-.2c.9,0,1.8.4,2.7.5.9,0,1.8,0,2.7,0s1.8-.2,2.7-.1c.9,0,1.8.7,2.7.7.8,0,1.7-.1,2.1.3.4.4,0,1.3-.3,2-.3.9-.4,1.8-.8,2.7s-.6,1.8-1,2.6c-.3.9-.8,1.7-1.2,2.5s-.6,1.8-1,2.6c-.3.9-1,1.6-1.4,2.5s-.7,1.7-1,2.6-1,1.6-1.3,2.5c-.3.9-.6,1.8-1,2.6-.3.9-.8,1.7-1.2,2.5s0,2-.4,2.8c-.3.9-1.2,1.5-1.5,2.4-.3.9-.6,1.8-1,2.6s-.5,1.8-.9,2.7c-.3.9-.7,1.7-1.1,2.6-.3.9-.7,1.7-1,2.6s-.5,1.8-.8,2.7-.8,1.7-1.2,2.5c-.3.9-.4,1.8-.8,2.7s-1.1,1.6-1.4,2.5c-.3.9-.9,1.6-1.3,2.5s.2,2.1-.2,2.9c-.3.9-1.3,1.5-1.6,2.4s-.5,1.8-.9,2.7-.4,1.9-.7,2.7c-.3.9-.5,1.8-.9,2.7-.3.9-.7,1.7-1,2.6s-1.1,1.6-1.4,2.4-.7,1.7-1,2.6c-.3.9-1.1,1.6-1.4,2.5-.3.9-.3,1.9-.6,2.8s-1.1,1.6-1.4,2.5c-.3.9-.7,1.7-1,2.6-.3.9-.8,1.7-1.1,2.6-.3.9-.4,1.9-.7,2.7-.3.9-.2,1.9-.5,2.8s-1,1.6-1.4,2.5c-.4,1.2-1.5,1.7-3,1.7-1,0-1.9-.1-2.9-.1s-1.9-.2-2.9-.2c-1,0-1.9.2-2.9.2-1,0-1.9-.4-2.9-.4-1,0-1.9.9-2.9.9s-1.9-.5-2.9-.4-1.9.3-2.9.3c-1,0-1.9-.2-2.9-.1s-1.9.2-2.9.3c-1,0-1.9-.4-2.9-.4-1.6,0-2-.3-2-1.6Z"/>
    <path class="st1" d="M477.5,433c-.5.3-1.1.6-1.9.4-.9-.1-1.9-.4-2.8-.5-.9-.1-1.9-.3-2.8-.5-.9-.1-1.9-.4-2.8-.5s-1.9-.2-2.8-.4c-.9-.1-1.9.1-2.9,0s-1.9,0-2.9-.1c-.9-.1-1.8-1.2-2.7-1.3-.9-.1-1.9,0-2.9-.2s-1.9-.1-2.9-.2c-.9-.1-1.9-.1-2.9-.2-.9-.1-1.8-.7-2.8-.8-.6,0-1.3.5-1.3,1-.1,1,.1,1.9,0,2.8-.1,1-.2,1.9-.3,2.8-.1.9-.3,1.8-.4,2.7-.1.9-.7,1.7-.8,2.7s.4,1.9.2,2.9c-.2.4-.3,1.1.3,1.2,1,.1,1.9-.4,2.8-.3s1.8.6,2.7.7c.9.1,1.8.4,2.7.5.9.1,1.8,0,2.8,0,.9.1,1.8.1,2.7.3.8.1,1.7.2,2.7.4.8.1,1.4.3,1.8.7.4.4.8,1,.7,1.7-.1.9-.5,1.8-.6,2.6-.1.9-.6,1.7-.7,2.6-.1.9-.1,1.8-.3,2.6-.1.9-.5,1.7-.6,2.6-.1.8.3,1.8.2,2.7s-.8,1.6-1,2.5c-.1.8.2,1.8,0,2.7-.3,1.4-1.4,2.1-3,1.9-1-.1-1.8-.7-2.7-.8-1-.1-1.9-.3-2.7-.4-.9-.1-1.8-.3-2.7-.4s-1.8,0-2.7-.2-1.8,0-2.7-.1c-.8-.1-1.8,0-2.7-.2-.6,0-.4,0-.4.5-.1,1-1.1,1.8-1.3,2.7s.4,2,.3,2.9c-.1.9-.7,1.8-.8,2.7s.2,1.9,0,2.8-.4,1.8-.5,2.8c-.2.5-.2.9.4.9.9.1,1.9-.1,2.9,0,.9.1,1.9.2,2.9.3.9.1,1.9.6,2.8.7.9.1,1.9-.2,2.9,0,.9.1,1.8.9,2.8,1s1.9,0,2.9,0c.9.1,1.9.2,2.9.3.9.1,1.9.4,2.8.6s1.9,0,2.9.1,2-.2,2.9,0c.9.1,1.9.3,2.8.4.8.1,1.2.9,1.6,1.3.4.4,1,1,.9,1.6-.1.9-.2,1.8-.3,2.6-.1.9-.9,1.7-1.1,2.5-.1.9-.4,1.7-.5,2.6-.1.9.2,1.8,0,2.7s-.2,1.7-.4,2.6-.4,1.7-.6,2.6c-.1.8,0,1.7-.2,2.7-.1.6-.3,1.4-.8,1.7-.5.3-1.4,0-2.1,0-.9-.1-1.8-.5-2.7-.6-.9-.1-1.9,0-2.8,0-.9-.1-1.8-.2-2.7-.4-.9-.1-1.8-.1-2.8-.3s-1.8-.1-2.8-.2-1.8-.6-2.7-.7c-.9-.1-1.9.2-2.8.1-.9-.1-1.7-1.1-2.6-1.2s-1.8-.2-2.7-.3c-.9-.1-1.9,0-2.8,0-.9-.1-1.9,0-2.8-.1-.9-.1-1.8-.6-2.7-.7-.9,0-1.9.3-2.8.2s-1.8-.6-2.7-.7c-.9,0-1.9.5-2.8.4s-1.8-.7-2.7-.8c-.9,0-1.8-.2-2.7-.3-.9,0-1.8-.5-2.7-.6s-1.9.2-2.8.1c-.9,0-1.8-.2-2.7-.3s-1.8,0-2.8,0-1.8-.4-2.7-.5c-.7,0-1.5,0-1.9-.3-.4-.4-.6-1.3-.5-1.9.1-.9.4-1.8.5-2.8.1-.9.4-1.8.5-2.8s.7-1.8.8-2.7.3-1.8.4-2.8-.2-1.9,0-2.8,0-1.9,0-2.8c.1-.9,1.2-1.7,1.3-2.6s-.5-2-.3-2.9.2-1.9.3-2.8.3-1.8.5-2.8c.1-.9.8-1.8.9-2.7s-.3-1.9-.1-2.9c.1-.9.6-1.8.7-2.7s.4-1.8.5-2.8c.1-.9.6-1.8.7-2.7s-.4-1.9-.2-2.9c.1-.9.3-1.9.4-2.8.1-.9.7-1.8.9-2.7.1-.9.2-1.9.4-2.8s.5-1.8.6-2.7,0-1.9,0-2.8c.1-.9.3-1.9.4-2.8.1-.9.6-1.8.7-2.7.1-.9-.2-1.9,0-2.8.1-.9,0-1.9.1-2.8.1-.9.5-1.8.6-2.7.1-.9.6-1.8.7-2.7s-.3-1.9-.2-2.9.8-1.8.9-2.7c.1-.9.4-1.8.6-2.8.1-.9,0-1.9.2-2.8.1-.9.1-1.9.3-2.8s.9-1.8,1.1-2.7-.1-1.9,0-2.8c.1-.7.1-1.5.7-1.8.5-.3,1.3-.2,2-.2.9,0,1.8.4,2.7.5.9,0,1.9,0,2.8,0,.9,0,1.8.5,2.7.6.9,0,1.9-.4,2.8-.3.9.1,1.8.7,2.7.8.9.1,1.8.5,2.7.6.9.1,1.9-.2,2.8-.1.9.1,1.8.7,2.7.8s1.9-.2,2.8-.1c.9.1,1.8.1,2.8.3.9.1,1.8.7,2.7.8.9.1,1.9,0,2.8.1s1.8.3,2.7.5c.9.1,1.9-.3,2.8-.2.9.1,1.7,1,2.6,1.1s1.9-.6,2.9-.5c.9.1,1.7,1.2,2.6,1.3s1.9-.1,2.8,0,1.9,0,2.8.1,1.8.7,2.7.8c.9.1,1.9-.2,2.8,0,.9.1,1.8.2,2.8.3.8.1,1.4.6,1.8,1.1.4.4.6,1.1.5,1.7-.1.9-.4,1.8-.5,2.6s-.6,1.7-.7,2.6c-.1.9.5,1.9.4,2.7-.1.9-.6,1.7-.7,2.6-.1.8-.5,1.7-.7,2.6-.1.8,0,1.7-.2,2.6-.1.8-.1,1.7-.3,2.6-.1.6-.7,1-1.2,1.3Z"/>
    <path class="st1" d="M516.6,514.9c-.1-.9-.7-1.8-.8-2.8s.4-2,.3-2.9-.9-1.8-1.1-2.7c-.1-.9,0-1.9-.2-2.9-.1-.9.1-1.9,0-2.9s-.7-1.8-.8-2.8c-.1-.9.1-1.9,0-2.9-.1-.9-.4-1.9-.5-2.8s-.3-1.9-.4-2.8-.5-1.8-.7-2.8c-.1-.9,0-1.9,0-2.9s.1-1.9,0-2.9c-.1-.9-1-1.8-1.2-2.7,0-.4.1-.2-.2-.3-.4,0-.2-.3-.2.2-.1.9-1,1.7-1.1,2.6s-.2,1.8-.3,2.7c-.1.9-.4,1.8-.5,2.6s0,1.8-.2,2.7c-.1.9.3,1.9.1,2.7-.1.9-.2,1.8-.4,2.7s-.8,1.7-1,2.6-.5,1.7-.6,2.6.3,1.9.1,2.7c-.1.9-.5,1.7-.6,2.6-.1.9.2,1.8,0,2.7s-.8,1.7-.9,2.6.2,1.8,0,2.7c-.1.6-.9,1-1.4,1.3-.5.3-1.1.8-1.8.7-1-.2-1.8-1-2.8-1.1-1-.2-2,.4-3,.3-1-.2-1.9-.6-2.8-.8s-2,0-2.9,0-1.9-.7-2.8-.8-1.9-.6-2.8-.7-1.9-.2-2.9-.3c-1-.1-1.9-.4-2.9-.6s-2,.3-3,.2c-.7-.1-1.4-.5-1.8-1-.4-.4-.7-1.3-.6-1.9.1-.9.3-1.8.4-2.7.1-.9.6-1.8.7-2.7.1-.9.2-1.8.4-2.8.1-.9.4-1.8.6-2.7s.2-1.8.4-2.8c.1-.9.3-1.8.4-2.7s0-1.9,0-2.8.7-1.8.8-2.7,0-1.9.2-2.8c.1-.9,0-1.9.2-2.8s1-1.7,1.1-2.6-.3-1.9-.1-2.8,0-1.9.2-2.8.7-1.8.9-2.7,0-1.9.1-2.8c.1-.9.8-1.8.9-2.7.1-.9-.1-1.9,0-2.8s.5-1.8.7-2.7.3-1.8.4-2.7.4-1.8.5-2.7c.1-.9.1-1.9.3-2.8.1-.9.6-1.8.8-2.7.1-.9-.6-2-.5-2.9s1.1-1.7,1.2-2.6c.1-.9,0-1.9.1-2.8s.5-1.8.6-2.7c.1-.9.2-1.8.4-2.8s-.4-1.9-.3-2.9.4-1.8.6-2.7c.1-.9.2-1.8.3-2.8.1-.9.7-1.8.8-2.7s.4-1.8.6-2.7-.3-1.9-.2-2.8.7-1.8.9-2.7c.1-.6.1-1.5.6-1.8.5-.3,1.2.4,1.9.5.9.2,2-.5,3-.3.9.2,1.9.4,2.8.5s1.9.2,2.9.3,1.9.5,2.8.6,1.9.4,2.8.5,1.9.3,2.8.4,1.9.4,2.8.5c.9.2,1.9.2,2.9.3.9.2,1.9.5,2.8.7.9.2,1.9.5,2.8.6s2,0,2.9,0c.9.2,1.9.2,2.9.3s1.8.8,2.8.9c.9.1,1.7.6,2.6.8.9.2,1.9-.1,2.8.2.8.3,1.7.5,2.6.8.8.3,1.4,1.3,2.2,1.7.8.4,1.6.7,2.4,1.1s1.4,1.1,2.2,1.6,2,.2,2.8.8.9,1.8,1.5,2.4c.7.6,1.5,1,2.1,1.7.6.7,1.6,1.1,2.1,1.9s1,1.6,1.5,2.4,1.1,1.6,1.5,2.4.5,1.8.9,2.7c.3.9,0,2,.3,2.9.3.9.5,1.8.7,2.7s.9,1.8.9,2.7c.1,1,0,1.9,0,2.8,0,1-.3,1.8-.4,2.6,0,1,.4,2,.3,2.6-.1,1-.3,1.9-.5,2.8-.2.9-.9,1.8-1.2,2.6s-.2,2-.6,2.9c-.4.9-1.5,1.4-2,2.2-.5.8-.3,2.1-.9,2.8-.5.7-1.4,1.2-2,1.9s-1,1.6-1.6,2.2c-.7.6-1.6.9-2.4,1.4-.7.5-1.6.8-2.4,1.2s-1.4,1.3-2.2,1.7c-.6.2-1,.2-.8.6.2.9.3,1.8.5,2.8s.3,1.9.4,2.8,0,1.9.2,2.8.5,1.8.7,2.7.6,1.8.8,2.7c.2.9.7,1.8.8,2.7.2.9-.2,1.9,0,2.9s.6,1.8.8,2.7.3,1.9.5,2.8c.2.9.5,1.8.7,2.7.2.9.3,1.9.4,2.8.2.9.4,1.8.6,2.8.2.9-.5,2-.3,2.9.2.9.5,1.8.7,2.7s.7,1.8.9,2.7c0,.2-.1.4-.1.6,0,.6-.1,1.3-.6,1.6-.4.3-1.2,0-1.9-.1-.9-.2-1.8-.4-2.6-.5s-1.7-.5-2.6-.6c-.9-.2-1.9.3-2.8.1s-1.7-.5-2.6-.6c-.9-.2-1.7-.5-2.6-.6-.9-.2-1.7-.4-2.6-.6s-1.8-.2-2.7-.4c-.9-.2-1.8-.1-2.7-.3-.9-.2-1.8-.4-2.6-.6s-1.8-.3-2.7-.5c-1.3-.2-2.1-.9-2.3-2.2ZM516.8,439.9c-.6,0-.5.2-.5.7-.2,1-.9,1.8-1.1,2.6-.1,1,.4,2,.3,2.8-.1.9-.5,1.8-.6,2.7-.1.9-.6,1.7-.8,2.6s.1,1.8,0,2.8c-.1.8-.6,1.7-.8,2.7,0,.5.4.8,1,.9.9.1,1.3.1,2.2.3.9.1,1.6-.1,2.4-.2.8,0,1.7,0,2.4-.3s1.7-.5,2.3-1c.7-.6.6-1.9,1.1-2.7s.6-1.6.8-2.6c.2-.9.3-1.7.3-2.8s.5-2.1.3-3c-.3-.9-.9-1.8-1.5-2.6-.6-.7-1.4-1.5-2.3-1.9-.8-.4-1.9-.5-2.9-.7-.9-.2-1.4-.2-2.4-.4Z"/>
    <path class="st1" d="M569.9,525.2c-.4-.4-.8-1.2-.7-1.9.1-.9.6-1.7.7-2.6s.3-1.8.4-2.7c.1-.9,0-1.8.2-2.7s.6-1.7.8-2.6.5-1.7.7-2.6c.1-.9-.1-1.8,0-2.7s.1-1.8.3-2.7c.1-.9.6-1.7.8-2.6s0-1.8,0-2.7.1-1.8.2-2.7.7-1.7.8-2.6-.1-1.9,0-2.7c.1-.2,0-.4-.2-.8-.2-.9,0-1.9-.2-2.9-.2-.9-.2-1.9-.4-2.8-.2-.9-.6-1.8-.8-2.7-.2-.9-.3-1.9-.5-2.8s-.9-1.7-1.1-2.7.2-2,0-2.9-.6-1.8-.8-2.7-.3-1.9-.5-2.8-.2-1.9-.4-2.8c-.2-.9-1-1.7-1.2-2.6-.2-.9.1-2,0-2.9s-1-1.7-1.2-2.6c-.2-.9-.3-1.9-.5-2.8-.2-.9-.5-1.8-.7-2.7-.2-.9-.5-1.8-.7-2.7-.2-.9-.2-1.9-.4-2.8s-.3-1.9-.5-2.8c-.2-.9.1-2,0-2.9-.2-.9-.8-1.7-1-2.7-.2-.9-.6-1.8-.8-2.7s0-1.9-.2-2.8-.9-1.7-1.1-2.6c-.2-.9.2-2,0-2.9,0-.2.2-.3.2-.5,0-1.2.4-2.1,2-1.9.9.2,1.8.4,2.7.5.9.2,1.8.6,2.7.7.9.2,1.8.6,2.7.7s1.8.2,2.7.3c.9.1,1.8.6,2.7.8.9.1,1.9,0,2.8.2s1.9-.2,2.8,0c.9.1,1.8.4,2.7.6.9.1,1.8.6,2.7.7.9.1,1.8.5,2.7.6,1.6.3,2.1.9,2.2,2.1,0,1,.4,1.9.5,2.9,0,1,.4,1.9.5,2.9s-.6,2-.5,2.9c0,1,.7,1.9.7,2.9,0,1,.3,1.9.3,2.9s-.3,2-.2,2.9c0,1,0,1.9,0,2.9,0,1,.5,1.9.6,2.9s0,1.9,0,2.9c0,1,.2,1.9.3,2.9,0,.3.3,0,.6,0,.3,0,.2.3.3,0,.3-.9.7-1.8,1-2.7.3-.9.5-1.9.9-2.8.3-.9.7-1.8,1.1-2.7.3-.9,1.2-1.6,1.5-2.5.3-.9.5-1.9.8-2.8s.6-1.8,1-2.7c.3-.9.8-1.8,1.1-2.7.3-.9,1.1-1.7,1.4-2.6s.4-1.9.7-2.8c.3-.9.3-1.9.6-2.9.4-1.2,1.7-1.2,3.3-1,.9.1,1.9-.1,2.8,0,.9.1,1.8.6,2.7.7.9.1,1.9-.3,2.8-.2.9.1,1.8.4,2.7.6.9.1,1.8.6,2.7.7.9.1,1.9-.1,2.8,0s1.8,0,2.7.2,1.7.7,2.7.8,1.9-.2,2.8-.1,1.8.6,2.7.7c.9.1,1.8.3,2.1.8.3.5.3,1.5,0,2.2-.5.8-1.3,1.5-1.7,2.3s-1.3,1.4-1.8,2.3c-.5.8-.3,2-.8,2.8-.5.8-.9,1.7-1.3,2.5-.5.8-1.6,1.3-2.1,2.1-.5.8-1,1.6-1.4,2.4-.5.8-.5,1.9-1,2.7s-1.2,1.5-1.7,2.3c-.5.8-1,1.6-1.5,2.4s-.9,1.7-1.4,2.5c-.5.8-.6,1.8-1,2.7-.5.8-.9,1.7-1.4,2.5s-1.2,1.5-1.7,2.3c-.5.8-.6,1.8-1.1,2.7-.5.8-.7,1.8-1.1,2.6s-1,1.6-1.5,2.4c-.5.8-.9,1.7-1.4,2.5-.5.8-1.3,1.5-1.7,2.3-.5.8-.9,1.6-1.4,2.5-.5.8-1,1.6-1.5,2.4-.5.8-.8,1.7-1.3,2.5-.5.8-1,1.6-1.5,2.4-.5.8-.6,1.8-1,2.6,0,.3,0,.4-.2.7-.1.9-.5,1.8-.6,2.6-.1.9,0,1.8,0,2.7-.1.9-.8,1.7-1,2.6-.1.9-.4,1.8-.5,2.7-.1.9.1,1.8,0,2.7-.1.9-.6,1.7-.7,2.6s.3,1.9.2,2.8c-.1.9-.4,1.8-.5,2.7s-.9,1.7-1,2.6c-.1.9.1,1.8,0,2.7-.1.9,0,1.8-.2,2.7s-.6,1.7-.7,2.6c-.1.6-.3,1.2-.7,1.5-.4.3-1.1.1-1.8,0-1-.2-1.9-.3-2.9-.5-1-.2-2,0-2.9-.1s-1.8-.8-2.8-.9-2,.3-3,.2-1.9-.2-2.9-.4-1.9-.2-2.9-.4c-1-.2-1.8-.9-2.8-1s-2,.1-2.9,0c-1-.2-1.8-1-2.8-1.1-.8-.1-1.6,0-2-.4Z"/>
    <path class="st1" d="M631.6,534.5c-.4-.4-.9-.7-.7-1.4.1-.9.8-1.8.9-2.7.1-.9-.2-1.9,0-2.8s0-1.9.2-2.8c.1-.9.2-1.9.3-2.8.1-.9.6-1.8.8-2.7.1-.9.3-1.8.5-2.7.1-.9.4-1.8.5-2.7s-.2-1.9,0-2.8.4-1.8.5-2.7.7-1.8.8-2.7-.2-1.9,0-2.8c.1-.9.3-1.8.5-2.7.1-.9.3-1.8.5-2.7s-.2-1.9,0-2.8c.1-.9.5-1.8.7-2.7s.3-1.8.5-2.7.5-1.8.6-2.7,0-1.9,0-2.8.3-1.8.4-2.8c.1-.9.2-1.9.3-2.8.1-.9.7-1.8.8-2.7.1-.9-.2-1.9,0-2.8.1-.9.3-1.8.4-2.8s1-1.7,1.1-2.7-.5-1.9-.3-2.9.7-1.8.8-2.7c.1-.9.3-1.8.4-2.8s.3-1.8.5-2.8c.1-.9-.2-1.9,0-2.8s1.1-1.7,1.2-2.6c.1-.9-.2-1.9,0-2.8.1-.9.6-1.8.7-2.7.1-.9-.3-1.9-.1-2.8.1-.9,0-1.9.2-2.8.1-.7,1-.8,1.5-1.2.5-.3.9-.7,1.6-.6.9.1,1.8.2,2.7.3.9.1,1.8,0,2.7.1.9,0,1.8.5,2.6.5.9,0,1.8-.3,2.7-.2.9,0,1.8.2,2.7.3s1.7.8,2.6.9c.9,0,1.8.3,2.7.4.9,0,1.8,0,2.7.1.9,0,1.8-.3,2.7-.2.9,0,1.8.2,2.7.3s1.8.4,2.7.5,1.8.2,2.7.3c.9,0,1.9-.3,2.9-.2.9.1,1.9.3,2.8.4.9.2,1.8.8,2.7,1,.9.2,1.9.2,2.8.4.9.3,1.8.6,2.7.9s1.7.9,2.5,1.3,1.6.9,2.5,1.4c.8.4,1.8.7,2.6,1.2.8.5,1.6.9,2.4,1.5.8.6,1.4,1.4,2.1,2.1.7.7,1.2,1.6,1.8,2.4s1.3,1.5,1.8,2.3,1.4,1.5,1.7,2.4.3,2,.5,2.9,1.1,1.8,1.2,2.8c.1,1-.4,2-.4,3s.2,2.3,0,4.2c-.1.9-.8,1.8-.9,2.8-.1.9-.2,1.9-.3,2.9s.3,2,.1,2.9c-.1.9-.3,1.9-.4,2.8s-.5,1.9-.6,2.8-.8,1.8-1,2.8c-.1.9.4,2,.2,2.9-.1.9-.5,1.9-.7,2.8s-.5,1.9-.6,2.8c-.1.9,0,1.9-.1,2.9-.1.9-.8,1.8-.9,2.8-.1.9.3,2,.1,2.9s-.7,1.8-.8,2.8c-.1.9-.3,1.9-.4,2.8s.4,2,.2,2.9c-.1.9-.5,1.8-.7,2.7-.2.9-.4,1.8-.7,2.7-.3.9-1.2,1.5-1.5,2.3s-.3,1.9-.7,2.7-.9,1.6-1.5,2.3-1.5,1.1-2.1,1.8c-.6.7-.8,1.9-1.5,2.5s-1.8.8-2.6,1.4-1.6,1-2.4,1.5c-.8.5-1.6,1-2.5,1.4-.8.4-1.4,1.5-2.3,1.9-.9.4-2.1,0-3,.2-.9.3-1.6,1.1-2.6,1.3s-1.8.8-2.7,1-1.9.1-2.9.2-1.9-.5-2.9-.4-1.8.6-2.8.6c-.9,0-1.9.2-2.9.1s-1.9-.5-2.8-.6c-.9,0-1.8-.4-2.7-.5-.9,0-1.8,0-2.7,0s-1.8-.5-2.6-.6c-.9,0-1.8.2-2.7.1s-1.8,0-2.7-.2c-.9,0-1.8,0-2.7,0s-1.7-.9-2.6-1c-.9-.1-1.8-.3-2.7-.4-.9-.1-1.8-.2-2.7-.3-.9-.1-1.9.4-2.7.3s-1.8,0-2.7-.2-1.7-.6-2.6-.7c-.7,0-.9-.7-1.3-1.1ZM665.3,516.6c.9,0,1.4-.4,2.4-.3.9,0,1.9.4,2.7.1.8-.3,1.4-1.2,2.1-1.8.7-.6,1.2-1.5,1.6-2.3.4-.8.7-1.7.9-2.7.1-.9.6-1.8.7-2.7.1-.9.3-1.8.5-2.8.1-.9.4-1.8.5-2.8s-.2-1.9,0-2.8c.1-.9.4-1.8.5-2.8.1-.9.7-1.8.8-2.7s-.2-1.9,0-2.8.3-1.8.5-2.8.3-1.8.5-2.8-.2-1.9,0-2.8c.1-.9.5-1.8.7-2.7.1-.9.3-1.8.5-2.8.1-.9.5-1.8.6-2.7s0-1.9,0-2.8c0-.6.1-.9.2-1.5,0-.9-.2-1.5-.4-2.2-.3-.8-.3-1.6-.8-2.2-.5-.6-1.4-.6-2.1-.9s-1.3-.5-2.1-.5c-.9,0-1.4-.8-2.3-.9-.6,0-.5.6-.5,1.1-.1.9-.7,1.8-.8,2.7-.1.9-.3,1.8-.4,2.7-.1.9-.3,1.8-.4,2.7-.1.9.2,1.9.1,2.8s-1.1,1.7-1.2,2.6.2,1.9,0,2.8-.6,1.8-.7,2.7.3,1.9.1,2.8,0,1.8-.2,2.8c-.1.9-1,1.7-1.1,2.6-.1.9,0,1.9,0,2.8-.1.9-.3,1.8-.4,2.7s-.1,1.8-.2,2.7-.5,1.8-.7,2.7c-.1.9.2,1.9.1,2.8-.1.9-.3,1.8-.4,2.7s-.9,1.7-1,2.6-.4,1.8-.6,2.7-.1,1.8-.3,2.7c-.2.5.2,1.1.8,1.2Z"/>
    <path class="st1" d="M753.1,539.5c0-1,.3-1.9.3-2.7,0-1,.3-1.8.2-2.7,0-.9-.5-1.7-.5-2.7,0-.8.2-1.7.2-2.7.1-.2-.3,0-.5-.1-.2-.1-.2-.4-.5-.4-1.1,0-2,0-2.9,0-1,0-2-.2-2.9-.2-1,0-1.9.7-2.9.8-.9,0-1.9,0-2.9,0-.9,0-1.9-.7-2.9-.7-.6,0-1,.7-1.3,1.2-.3,1-.8,1.8-1.1,2.7-.3,1,0,2-.2,2.9-.3.9-.9,1.6-1.2,2.6s-.6,1.7-.8,2.7c-.3,1.3-1.1,2.5-2.7,2.5-.9,0-1.9-.8-2.8-.8s-1.9,0-2.8,0-1.9.8-2.8.8c-.9,0-1.9-.8-2.8-.8-.9,0-1.9.2-2.8.2s-1.9.5-2.9.5-1.9-.5-2.8-.5c-.9,0-1.9-.2-2.8-.3s-1.9-.3-2.8-.3c-1.7,0-2.5-.5-2-2,.3-.9.9-1.6,1.3-2.5.3-.9.5-1.8.8-2.6.3-.9.5-1.8.8-2.7s1.3-1.5,1.6-2.3,0-2,.4-2.8c.3-.9,1.2-1.5,1.5-2.4.3-.9.8-1.7,1.1-2.5s0-2,.4-2.8c.3-.9,1.2-1.5,1.5-2.4.3-.9.3-1.9.6-2.7.3-.9.8-1.7,1.1-2.5s.5-1.8.8-2.6c.3-.9.6-1.7,1-2.6.3-.9,1.3-1.5,1.6-2.3.3-.9.3-1.8.7-2.7.3-.9.2-1.9.6-2.7.3-.9,1.5-1.4,1.8-2.3.3-.9,0-1.9.4-2.8s.5-1.8.9-2.6c.3-.9.9-1.6,1.2-2.5.3-.9.5-1.8.8-2.6.3-.9.8-1.7,1.2-2.5.3-.9.7-1.7,1.1-2.6.3-.9.5-1.8.8-2.7.3-.9.6-1.7,1-2.6.3-.9,1.1-1.5,1.4-2.4s.2-1.9.5-2.8c.3-.9,1.1-1.6,1.4-2.4.3-.9.6-1.8.9-2.6s.4-1.8.7-2.7c.3-.9.8-1.7,1.1-2.5.3-.9.7-1.7,1.1-2.6.3-.9.8-1.7,1.2-2.5s.4-1.8.7-2.7c.3-.9,1.2-1.5,1.5-2.4.3-.9,0-1.9.4-2.8.3-.9,1.2-1.5,1.5-2.4.4-1.2,1.1-2.1,2.7-2.1.9,0,1.8-.1,2.7-.1.9,0,1.8.4,2.7.4.9,0,1.8-.3,2.7-.4.9,0,1.8-.6,2.7-.6.9,0,1.8.3,2.7.2.9,0,1.8-.3,2.7-.4.9,0,1.8-.2,2.7-.2s1.8,0,2.7,0,1.8-.4,2.7-.5c.9,0,1.9.5,2.8.4s1.7-1,2.6-1.1c1.6-.2,2.9.8,3,2,0,.9.2,1.8.3,2.8,0,.9-.7,1.9-.6,2.9s.6,1.8.7,2.7.6,1.8.7,2.7c0,.9-.3,1.9-.2,2.8s.6,1.8.7,2.7c0,.9,0,1.9.1,2.8s.2,1.9.3,2.8-.6,1.9-.5,2.9c0,.9.8,1.8.9,2.7,0,.9.2,1.9.3,2.8s.4,1.8.5,2.8-.2,1.9-.1,2.8.3,1.8.4,2.8-.4,1.9-.3,2.8c0,.9,1,1.8,1,2.7s0,1.9,0,2.8.3,1.8.4,2.8c0,.9-.1,1.9,0,2.8,0,.9.4,1.8.5,2.8,0,.9,0,1.9,0,2.8,0,.9,0,1.9.1,2.8s.8,1.8.9,2.7c0,.9-.3,1.9-.2,2.8s0,1.9.1,2.8c0,.9.4,1.8.5,2.8,0,.9.5,1.8.5,2.8,0,.9-.2,1.9-.1,2.8s.8,1.8.9,2.7c0,.9-.6,1.9-.5,2.9s.4,1.8.4,2.8.7,1.8.8,2.7.3,1.8.4,2.8c0,.9.2,1.9.3,2.8,0,.1-.2.2-.2.3,0,1.3-1.1,2-2.8,2.2-.9,0-1.7.4-2.6.5s-1.8-.2-2.7,0c-.9,0-1.8,0-2.7,0-.9,0-1.8,0-2.7.1s-1.7,1-2.6,1.1c-.9,0-1.8-.6-2.7-.6-.9,0-1.8.2-2.6.3-.9,0-1.7.6-2.6.6-.9,0-1.8-.4-2.7-.3s-1.7.6-2.6.6c-1.6,0-2.7-.5-2.6-1.9ZM743.9,507.5c1,0,1.9.3,2.7.3.9,0,1.7.3,2.6.2.8,0,1.6-.5,2.6-.6.3,0,.7,0,1-.6,0-1-.6-2-.6-2.9s.2-2,.2-2.9c0-1,0-2,0-2.9,0-1,.3-2,.3-2.9,0-1-.7-1.9-.7-2.9,0-1,0-2,0-2.9,0-1,.7-2,.7-2.9,0-1-.4-1.9-.4-2.9,0-1,.2-2,.2-2.9,0-.4-.5-.3-.7-.2-.3,0-.6,0-.6.2-.3.9-.6,1.8-.8,2.6s0,1.9-.2,2.8-1.3,1.5-1.6,2.4c-.3.9-.4,1.8-.7,2.7s.2,2,0,2.9-1.3,1.6-1.6,2.4c-.3.9-.3,1.8-.5,2.7-.3.9,0,1.9-.2,2.8s-.9,1.7-1.2,2.6c-.3.9-.7,1.7-.9,2.6-.2.5,0,.4.6.3Z"/>
    <path class="st1" d="M793.5,536.4c-.4-.3-.4-.5-.3-1.2.1-.9-.3-2-.2-2.9.1-.9.3-1.9.4-2.8.1-.9.2-1.9.3-2.8s.3-1.9.5-2.8.3-1.9.4-2.8.7-1.8.8-2.7c.1-.9.4-1.9.5-2.8s-.1-1.9,0-2.9c.1-.9,0-1.9.2-2.8.1-.9,1-1.8,1.1-2.7.1-.9-.6-2-.5-2.9.1-.9.4-1.9.5-2.8.1-.2.5-.5.4-.8-.2-.9-.6-1.7-.9-2.6s-.7-1.7-.9-2.6-.3-1.8-.5-2.7c-.2-.9-.3-1.8-.5-2.7-.2-.9,0-1.9-.2-2.8-.2-.9-.8-1.7-1-2.6-.2-.9-.2-1.8-.5-2.7-.2-.9-.4-1.8-.6-2.7-.2-.9-1-1.7-1.2-2.6-.2-.9-.4-1.8-.6-2.7s.4-2,.2-2.9c-.2-.9-.9-1.7-1.1-2.6-.2-.9-.7-1.7-1-2.6s.3-2,0-2.9-.9-1.7-1.2-2.6c-.2-.9-.2-1.9-.4-2.8s0-1.9-.3-2.8c-.2-.9-.9-1.7-1.1-2.6s-.3-1.8-.5-2.7-.2-1.8-.4-2.7c-.2-.9-.3-1.8-.5-2.7-.2-.9-.7-1.7-.9-2.6,0-.2.2-.3.2-.6,0-1.2.5-1.8,2.1-2,.9-.1,1.9,0,2.8-.1.9-.1,1.7-.8,2.6-.9.9-.1,1.9,0,2.8-.1.9-.1,1.7-.9,2.6-1.1.9-.1,2,.6,2.9.5.9-.1,1.7-1.1,2.6-1.2s1.8-.2,2.7-.3c.9-.2,1.8-.4,2.7-.6.9-.2,1.9.4,2.8.2.9-.2,1.7-1.1,2.6-1.2,1.6-.3,2.3.5,2.4,1.7,0,.9.7,1.8.7,2.8,0,.9.2,1.9.2,2.8,0,.9-.1,1.9,0,2.8s-.3,1.9-.3,2.9c0,.9,1,1.8,1.1,2.8,0,.9.1,1.9.2,2.8s0,1.9,0,2.8c0,.9-.5,1.9-.4,2.9,0,.9,1,1.8,1,2.8,0,.9-.4,1.9-.3,2.9,0,.3.2.5.5.5.3,0,0-.5.2-.8.3-.9,1.4-1.5,1.7-2.3.3-.9.5-1.7.8-2.6.3-.9.6-1.7.9-2.6s.4-1.8.7-2.6-.1-2,.2-2.8c.3-.9.6-1.7.9-2.6.3-.9.6-1.7.9-2.6.3-.9.9-1.6,1.1-2.5.3-.9.8-1.6,1.1-2.5s.4-1.8.7-2.6.1-1.9.4-2.7c.3-.9,1.3-1.5,1.5-2.4.2-.7.4-1.3.9-1.8.5-.4,1-1.1,1.8-1.3.9-.2,1.8-.4,2.8-.6.9-.2,1.8-.7,2.7-.9s2,.1,2.9-.1c.9-.3,1.7-1,2.6-1.3.9-.3,2,.2,2.9,0s1.6-1.4,2.5-1.7,1.9-.2,2.8-.4c.9-.3,1.7-.8,2.6-1.1s1.9-.4,2.8-.7c.9-.3,1.8-.4,2.7-.7.9-.3,1.3-.3,1.5,0,.3.3.5.8.2,1.7-.4.8-1.2,1.5-1.6,2.3s-.5,1.8-.9,2.6-.4,1.9-.7,2.7c-.4.8-.9,1.6-1.2,2.5-.4.8-1.2,1.5-1.6,2.3s-.7,1.7-1.1,2.6c-.4.8-.6,1.8-.9,2.6s-.4,1.8-.8,2.7c-.4.8-1.3,1.4-1.7,2.3-.4.8-.4,1.9-.8,2.7-.4.8-1.3,1.5-1.6,2.3s-.5,1.8-.9,2.6c-.4.8-.7,1.7-1.1,2.6s-.3,1.9-.7,2.7c-.4.8-1.3,1.4-1.7,2.3-.4.8-.3,1.9-.6,2.7-.4.8-1.5,1.3-1.9,2.2-.4.8-.6,1.8-1,2.6s-.7,1.7-1.1,2.5-1,1.6-1.4,2.4c-.4.8-.7,1.7-1.1,2.6-.4.8-.7,1.7-1.1,2.6s-.3,1.9-.6,2.8-.9,1.6-1.3,2.4c-.4.8-1.1,1.5-1.5,2.4s-.4,1.8-.8,2.7-1.3,1.4-1.7,2.3-.8,1.7-1.1,2.5c0,.4.4.7.3,1-.1.9-.1,1.9-.3,2.9s-1,1.8-1.1,2.7c-.1.9,0,1.9-.1,2.9s-.4,1.9-.5,2.8c-.1.9.2,2,0,2.9-.1.9-1.1,1.8-1.2,2.7-.1.9-.3,1.9-.4,2.8-.1.9.6,2,.5,3s-.5,1.9-.6,2.8-.2,1.9-.3,2.9-.9,1.8-1,2.7c-.1.9-.3,1.9-.4,2.8-.1.7-.4,1.1-.8,1.5-.4.5-.9.6-1.7.8-1,.2-1.8.9-2.7,1.1s-1.9.2-2.9.4-1.9.5-2.8.7c-1,.2-1.9.5-2.8.7-1,.2-1.9.1-2.9.3s-1.8.8-2.8,1c-1,.2-2,0-2.9.2s-2,0-2.9.2c-1,.2-1.8.7-2.8.9-.8.1-1.2-.5-1.6-.8Z"/>
    <path class="st1" d="M324.1,518.6c.7.6,1.3,1.4,1.9,2.1.7.7,1.4,1.3,2,2,.6.8,1,1.6,1.5,2.4.5.8,1.7,1.2,2.1,2.1.4.8.5,1.9.9,2.7s0,2,.3,2.9c.3.9,1.4,1.6,1.6,2.5.2.9.1,1.9.2,2.9.1.9.1,1.9.2,2.9,0,.9,0,1.9,0,2.9,0,.8-.1,1.6-.2,2.4s.4,1.7.3,2.4-.4,1.7-.5,2.3c-.1.9-.2,1.7-.4,2.6-.2.9-.4,1.7-.6,2.6-.2.8-.3,1.7-.6,2.6-.3.8-.5,1.7-.8,2.5-.3.8-.6,1.7-.9,2.5-.3.8-.8,1.6-1.2,2.4-.4.8-1,1.5-1.4,2.3s-.6,1.7-1.1,2.4c-.5.8-1.3,1.3-1.8,2-.5.8-1.2,1.5-1.9,2.3s-1.1,1.6-1.8,2.3-.9,1.8-1.6,2.5c-.7.7-1.6,1.1-2.4,1.8-.7.7-1.6,1.2-2.3,1.8-.8.6-1.3,1.5-2.1,2.1s-1.4,1.5-2.2,2c-.8.6-2,.5-2.8,1-.8.4-1.3,1.4-2.1,1.8s-1.7.8-2.5,1.2-1.7.6-2.6,1c-.8.4-1.6.9-2.5,1.3-.9.3-1.8.5-2.6.8s-1.6.9-2.5,1.2c-.9.3-1.9.2-2.8.4-.9.2-1.7.7-2.6.9-.9.2-1.8.2-2.7.4-.9.1-1.8-.3-2.6-.2s-1.7.4-2.5.6-1.6.3-2.5.4c-.8.1-1.7,0-2.5.2s-1.5.6-2.4.8c-.8.1-1.4.6-1.4,1.3-.1.9,0,1.9-.1,2.8-.1.9.2,1.9,0,2.9s-.9,1.8-1,2.7-.3,1.9-.4,2.8.2,1.9,0,2.8c-.1.9-.3,1.9-.4,2.8-.1.9-.4,1.8-.6,2.8-.1.9-.3,1.8-.5,2.8-.1.9-.6,1.8-.7,2.7-.1.9,0,1.9-.2,2.8-.1.9-.5,1.8-.6,2.7s-.4,1.8-.5,2.8.3,1.9.1,2.9c-.1.9-.5,1.8-.6,2.8-.1.9,0,1.9-.1,2.8s-.5,1.8-.6,2.8c-.1.9-.1,1.9-.2,2.8-.2.9-.4,1.9-1.1,2.6-.7.7-1.7.6-2.6.8-.9.2-1.8.5-2.7.7-.9.2-1.6,1.1-2.5,1.3-.9.2-1.9-.1-2.8.1s-1.8.5-2.7.8-1.8.5-2.7.8-1.7.9-2.6,1.1-1.9,0-2.8.3c-.9.3-1.8.6-2.6.9s-1.9.3-2.7.5-1.7.7-2.6,1c-.9.3-1.7.7-2.6,1s-1.8.4-2.7.7c-.9.3-1.7.7-2.6,1-.9.3-1.6,0-2.1-.3-.5-.3-.5-.8-.4-1.7.1-.9.3-1.9.4-2.8.1-.9.2-1.9.3-2.8.1-.9.3-1.9.4-2.8.1-.9.4-1.8.5-2.8.1-.9-.4-2-.3-2.9s.1-1.9.2-2.8.5-1.8.7-2.8c.1-.9,0-1.9.1-2.8.1-.9.2-1.9.3-2.8.1-.9.7-1.8.8-2.7.1-.9.6-1.8.8-2.7.1-.9,0-1.9.2-2.8s.5-1.8.6-2.8,0-1.9.2-2.8c.1-.9.3-1.9.4-2.8.1-.9.4-1.8.5-2.8s-.5-2-.3-2.9c.1-.9.4-1.8.5-2.8.1-.9.3-1.9.4-2.8.1-.9,0-1.9.2-2.8s1.1-1.7,1.2-2.7c.1-.9.2-1.9.3-2.8s-.4-2-.3-2.9.6-1.8.7-2.7c.1-.9.7-1.8.8-2.7.1-.9.2-1.9.3-2.8.1-.9-.4-2-.3-2.9.1-.9.2-1.9.4-2.8.1-.9.7-1.8.8-2.7.1-.9,0-1.9,0-2.8s.8-1.8.9-2.7c.1-.9,0-1.9.2-2.8s-.1-1.9,0-2.8c.1-.9.6-1.8.7-2.7.1-.9,0-1.9,0-2.8.1-.9.4-1.8.6-2.8s0-1.9,0-2.8.4-1.8.5-2.8.4-1.8.5-2.8,0-1.9,0-2.8c.1-.9.9-1.8,1-2.7.1-.9.3-1.9.4-2.8s0-1.9.2-2.8c.1-.9.2-1.9.4-2.8.1-.9.3-1.9.4-2.8.1-.9.1-1.9.2-2.8.1-.9.2-1.9.4-2.8s.2-1.9.4-2.8c.1-.9.5-1.9,1.2-2.6.7-.7,1.7-.9,2.6-1.1.9-.2,1.8-.7,2.7-.9s1.8-.5,2.7-.7c.9-.2,1.8-.6,2.7-.8.9-.2,1.9,0,2.8-.2.9-.2,1.7-1,2.6-1.2.9-.2,1.8-.3,2.8-.5s1.9,0,2.8-.2c.9-.2,1.9,0,2.8-.1.9-.2,1.8-.4,2.7-.6.9-.2,1.7-.8,2.7-1,.9-.2,1.9.2,2.9,0,.9-.2,1.7-1,2.6-1.2.9-.2,1.8-.4,2.8-.5s2,.4,2.9.2c.9-.2,1.8-.6,2.7-.8s1.8-.4,2.7-.6c.9-.1,1.9-.1,2.8-.3s1.9-.2,2.8-.3c.9-.1,1.8-.3,2.7-.4.9,0,1.8-.2,2.7-.2s1.8.3,2.7.3,1.9-.3,2.8-.2c.9,0,1.9,0,2.8.1.9.2,1.6,1,2.5,1.3s1.8.4,2.6.7c.9.3,1.7.6,2.5,1s1.9.3,2.7.7c.8.5,1.6,1,2.3,1.5s1.2,1.4,1.9,2ZM288.7,566.1c.6-.7,1.4-1.3,1.9-2.1s.8-1.7,1.1-2.6c.3-.8.8-1.7,1-2.7.2-.9-.4-2-.3-2.9.1-.8.5-1.8.5-3.2s.5-1.8.4-2.6-1.3-1.4-1.7-2.1-.6-1.5-1.2-2c-.6-.5-1.2-1-2-1.2s-1.4-.5-2.3-.6-1.6,0-2.4,0c-1.3.2-1.8.7-3.1,1-.8.1-1.1.2-1.1.9-.1.9-.2,1.8-.3,2.7s-.3,1.8-.4,2.7-.1,1.8-.2,2.7-.2,1.8-.3,2.7-.2,1.8-.3,2.7-.4,1.8-.5,2.7c-.1.9-.5,1.8-.6,2.7-.1.9,0,1.8-.1,2.7-.1.9-.7,1.7-.8,2.6-.3.7.4,1.5,1.3,1.3,1.2-.2,1.7-.5,2.9-.7.8-.1,1.5-.9,2.2-1.1.8-.3,1.7-.3,2.4-.6.7-.4,1.5-.7,2.2-1.2.6-.5,1.2-1.2,1.7-1.8Z"/>
    <path class="st1" d="M431.5,542.1c-.7.4-1.7,0-2.8-.1-.9,0-1.9.5-2.9.4-.9,0-1.8-.4-2.8-.5s-1.9,0-2.8,0-1.8-.7-2.7-.8-1.8-.5-2.8-.6-1.9.3-2.8.2c-.9,0-1.8-.4-2.8-.5s-1.9.2-2.8,0c-.9,0-1.9,0-2.8,0-.9,0-1.8-.4-2.8-.5-.9,0-1.9.2-2.8.2s-1.8-.7-2.8-.7c-.9,0-1.9.2-2.8.1s-1.9-.4-2.8-.5-1.9.4-2.8.4c-.8,0-1.5,0-1.5.7-.1.9.5,1.9.3,2.7-.1.9-1,1.7-1.1,2.6s-.2,1.8-.3,2.7c-.1.9,0,1.8-.1,2.7s0,1.8,0,2.7c-.1.8-.4,1.7-.5,2.6-.1.8-.8,1.6-.9,2.5-.3.6.4,1.4,1.3,1.5,1,0,1.9-.3,2.8-.3,1,0,1.8.6,2.7.6.9,0,1.9-.8,2.8-.8.9,0,1.8.5,2.7.6.9,0,1.8.2,2.7.3.9,0,1.8.5,2.7.6.9,0,1.8-.3,2.8-.2.9,0,1.8.4,2.7.4,1.1,0,1.8.2,2.3.7.5.6,1,1.2.8,2.1-.1.9-.9,1.7-1,2.7s-.2,1.8-.3,2.8c-.1.9-.1,1.9-.3,2.8-.1.9,0,1.9-.2,2.8s0,1.9-.2,2.8-.2,1.9-.3,2.8-.7,1.8-.9,2.7c-.1.9-.2,1.8-.4,2.8-.1.9,0,1.9,0,2.8-.2,1-1.1,1.3-1.8,1.7-.6.4-1.3,1-2.3.9-1,0-1.9-.2-2.7-.3-1,0-1.9.2-2.8.1-.9,0-1.9,0-2.8,0s-1.8-.7-2.7-.8c-.9,0-1.8-.2-2.7-.3-.9,0-1.8.1-2.7.1-.9,0-1.8-.2-2.7-.3-.9,0-1.8.6-2.8.6-.8,0-.7-.2-.7.5-.1,1-.5,1.8-.6,2.7s0,1.9-.2,2.7c-.1.9-.2,1.8-.3,2.7s-.7,1.7-.8,2.6c-.1.9-.6,1.7-.7,2.6-.1.9.2,1.8,0,2.8-.1.8,0,1.8,0,2.8-.3.6-.4.7.5.7.9,0,1.9.5,2.8.6.9,0,1.9,0,2.8,0,.9,0,1.9-.4,2.8-.3.9,0,1.8.6,2.8.7s1.9-.1,2.8,0c.9,0,1.9.3,2.8.4.9,0,1.9-.2,2.8-.1.9,0,1.8.4,2.8.4.9,0,1.9-.2,2.8-.1.9,0,1.9,0,2.8,0,.9,0,1.8.7,2.8.7s1.9-.5,2.8-.4c.9,0,1.8.8,2.7.9s1.9-.4,2.8-.3,1.8.4,2.8.5c1.1,0,2.2,0,2.7.6.5.6.8,1.7.6,2.5-.1.9-.6,1.8-.7,2.7s0,1.9,0,2.8c-.1.9-.6,1.8-.8,2.7-.1.9-.4,1.8-.5,2.7-.1.9-.4,1.8-.6,2.7s-.5,1.8-.6,2.7c-.1.9,0,1.9,0,2.8-.1.9-.5,1.8-.6,2.7-.1.9.2,1.9,0,2.8-.2.9-.5,1.9-1.2,2.4-.7.4-1.8.4-2.9.3-.9,0-1.9.1-2.8,0-.9,0-1.8-.4-2.8-.5-.9,0-1.9-.3-2.8-.3s-1.9.1-2.8,0-1.8-.6-2.8-.6c-.9,0-1.9.4-2.8.4-.9,0-1.8-.4-2.8-.4s-1.8-.7-2.8-.7c-.9,0-1.9,0-2.8,0-.9,0-1.9.2-2.8.2-.9,0-1.9-.4-2.8-.4s-1.9,0-2.8,0c-.9,0-1.9.6-2.8.5-.9,0-1.9-.3-2.8-.3s-1.9-.1-2.8-.2c-.9,0-1.9.2-2.8.2-.9,0-1.9-.1-2.8-.1s-1.9.2-2.8.2c-.9,0-1.9-.2-2.8-.2-.9,0-1.9,0-2.8,0-.9,0-1.9-.1-2.8-.1-.9,0-1.9.2-2.8.2s-1.9,0-2.8,0-1.9,0-2.8,0c-.9,0-1.9,0-2.8,0s-1.9-.8-2.8-.8c-.9,0-1.9.4-2.8.4-.9,0-1.9-.2-2.8-.1s-1.8.9-2.8.9c-.9,0-1.4-.9-1.9-1.4-.5-.5-.6-.8-.5-1.7.1-.9.2-1.8.3-2.8s.1-1.9.2-2.8c.1-.9.5-1.8.7-2.7s-.2-1.9,0-2.8.5-1.8.6-2.7-.3-1.9-.2-2.8.9-1.7,1-2.7-.3-1.9-.2-2.8.1-1.8.2-2.8c.1-.9.5-1.8.6-2.7.1-.9.8-1.8.9-2.7s0-1.9,0-2.8c.1-.9.1-1.8.3-2.8.1-.9.1-1.8.3-2.8.1-.9.3-1.8.4-2.7.1-.9.2-1.8.4-2.7.1-.9.5-1.8.7-2.7s0-1.9.2-2.8.5-1.8.6-2.7c.1-.9.5-1.8.6-2.7.1-.9-.2-1.9,0-2.8s.3-1.8.5-2.7c.1-.9.5-1.8.6-2.7s0-1.9.1-2.8.7-1.8.8-2.7c.1-.9.3-1.8.5-2.7.1-.9,0-1.9.1-2.8.1-.9-.2-1.9,0-2.8s.7-1.8.9-2.7-.3-1.9-.2-2.8c.1-.9,1.1-1.7,1.2-2.6s-.4-1.9-.2-2.8.4-1.8.5-2.7.2-1.8.4-2.7c.1-.9.7-1.8.8-2.7.1-.9,0-1.9,0-2.8.1-.9.4-1.8.5-2.7s0-1.9.2-2.8.8-1.8.9-2.7c.1-.9.3-1.8.4-2.7s-.2-1.9,0-2.8,0-1.9.1-2.8.4-1.8.6-2.7c.1-.9.6-1.8.7-2.7s.4-1.8.6-2.7.1-1.9.2-2.8c.1-.9.5-1.8.6-2.7.1-.9.2-1.6.9-2.1.7-.5,1.4-1.3,2.3-1.3.9,0,1.9.3,2.8.3s1.9-.1,2.8-.1c.9,0,1.9,0,2.8,0,.9,0,1.9,0,2.8,0s1.9.7,2.8.7c.9,0,1.9-.3,2.8-.3.9,0,1.9-.1,2.8,0s1.9-.3,2.8-.3,1.9.5,2.8.6c.9,0,1.9,0,2.8,0,.9,0,1.9.2,2.8.3.9,0,1.9.2,2.8.3s1.9,0,2.8,0c.9,0,1.9-.3,2.8-.3.9,0,1.9.2,2.8.3s1.9-.1,2.8,0,1.9.2,2.8.2c.9,0,1.8.9,2.7.9s1.9,0,2.8,0c.9,0,1.9,0,2.8,0s1.9-.2,2.8,0c.9,0,1.8.4,2.8.5.9,0,1.9,0,2.8,0,.9,0,1.9,0,2.8,0s1.9.2,2.8.3,1.9.2,2.8.3,1.8.8,2.7.9c.9,0,1.8.3,2.8.4.9,0,1.9-.3,2.8-.2,1.1.1,1.9.4,2.4,1,.5.6.5,1.3.4,2.2-.1.9-.2,1.8-.3,2.8-.1.9-.3,1.8-.4,2.7s.1,1.9,0,2.8c-.1.9-.8,1.8-.9,2.7-.1.9,0,1.9,0,2.8s-.6,1.8-.7,2.7c-.1.9-.5,1.8-.6,2.7-.1.9,0,1.9-.2,2.8-.1.9-.4,1.8-.6,2.7-.2.9,0,1.9-.7,2.4Z"/>
    <path class="st1" d="M442.3,639.1c-.7-.6-1.5-1.1-2.1-1.7-.6-.7-.9-1.6-1.5-2.3-.6-.7-1.4-1.2-1.9-2s-.9-1.6-1.4-2.3-1-1.5-1.4-2.3-1.1-1.5-1.4-2.4c-.3-.8-.3-1.8-.6-2.7-.3-.9,0-1.9-.2-2.7-.2-.9-1.1-1.6-1.3-2.5-.1-.9.4-1.9.3-2.8,0-.9-.3-1.8-.3-2.7,0-.8.2-1.8.3-3.2,0-.9.1-2,.2-3.2.1-.9,0-1.9,0-2.8.1-.9.5-1.8.6-2.7s.1-1.8.2-2.7c.1-.9,0-1.8.2-2.7.1-.9.7-1.7.8-2.7s.7-1.7.9-2.6c.1-.9-.4-1.9-.3-2.8s.7-1.7.9-2.6,0-1.9.1-2.8c.1-.9,0-1.8.2-2.7.1-.9.4-1.8.5-2.7.1-.9.2-1.8.4-2.7s.6-1.8.7-2.7,0-1.9,0-2.8.8-1.7.9-2.6c.1-.9,0-1.9.1-2.8s.7-1.7.8-2.7c.1-.9,0-1.8.1-2.8.1-.9.6-1.7.8-2.7.1-.9,0-1.9,0-2.8.1-.9.3-1.9.5-2.8.2-.9.6-1.8.9-2.7s.5-1.8.8-2.7c.3-.9.3-1.9.7-2.8.4-.9.8-1.7,1.3-2.5.4-.8,1.1-1.5,1.6-2.3.5-.8,1-1.6,1.6-2.3s.8-1.8,1.4-2.5,1.6-1.1,2.2-1.8c.7-.7,1.4-1.2,2.1-1.8.7-.6,1.3-1.4,2.1-1.9.8-.5,1.6-.9,2.4-1.4.8-.5,1.4-1.3,2.2-1.7.8-.4,1.9-.3,2.7-.6.8-.4,1.5-1.2,2.3-1.5.9-.3,1.7-.7,2.6-.9s1.9.2,2.8,0c.9-.2,1.7-.8,2.6-.9s1.8-.2,2.7-.4,1.7-.8,2.7-.8,1.9.4,2.8.4,1.8.2,2.7.2,1.8-.8,2.7-.7c.9,0,1.8.6,2.7.7.9,0,1.8.3,2.7.4s1.8.4,2.7.5c.9.2,1.9-.3,2.8,0s1.8.3,2.7.5c.9.2,1.5,1.3,2.4,1.5s1.9,0,2.8.2c.9.3,1.7.7,2.5,1,.8.3,1.8.3,2.6.7s1.6.8,2.5,1.2,1.5,1.1,2.3,1.6c.8.4,1.6.8,2.4,1.2s1.8.6,2.5,1.1c.8.5,1.3,1.3,2,1.9.7.5,1.5,1,2.2,1.6.7.6,1.4,1.1,2.1,1.7.7.6,1.1,1.5,1.8,2.1.6.7,1.4,1.2,2,2s.6,1.8,1.1,2.6,1.5,1.2,2,2c.5.8.8,1.7,1.2,2.5.4.8.6,1.8.9,2.6s.6,1.7.9,2.6c.3.9.5,1.8.7,2.7.2.9.2,1.8.3,2.7.1.9.2,1.8.2,2.7,0,.9.6,1.8.6,2.7,0,.8-.3,1.8-.4,3.2s-.5,2-.6,3.2c-.1.9-.2,1.9-.3,2.8s0,1.9-.2,2.9c-.1.9-.5,1.9-.6,2.8-.1.9.3,2,.2,2.9s-.4,1.9-.6,2.8-.3,1.9-.5,2.8c-.1.9-.8,1.8-.9,2.8-.1.9-.2,1.9-.3,2.8s.2,2,.1,2.9c-.1.9-.1,1.9-.3,2.9s-1.1,1.8-1.2,2.7.3,2,.1,2.9c-.1.9-.4,1.9-.5,2.8s-.6,1.8-.7,2.8c-.1.9-.4,1.9-.6,2.8-.1.9.4,2,.3,2.9-.1.9-1,1.8-1.1,2.7s.5,2,.3,2.9c-.1.9-.9,1.8-1.1,2.7-.1.9,0,1.9-.2,2.8s-.1,1.9-.4,2.8-.3,1.9-.6,2.7-1,1.6-1.4,2.5c-.4.8-.8,1.7-1.3,2.5-.4.8-1.2,1.4-1.7,2.2s-.6,1.8-1.2,2.6-1.1,1.5-1.7,2.2c-.6.7-1.6,1-2.3,1.7-.7.6-1.1,1.6-1.8,2.2-.7.6-1.9.6-2.6,1.1-.8.5-1.2,1.5-2,2-.8.5-1.5,1-2.4,1.4s-2,0-2.8.4-1.4,1.4-2.3,1.7-1.9,0-2.8.3c-.9.2-1.6,1-2.5,1.2s-1.9-.5-2.8-.3c-.9.1-1.7.7-2.6.8-.9.1-1.8.2-2.7.3s-1.8-.1-2.7,0c-.9,0-1.8.2-2.7.2-.9,0-1.8.1-2.7,0s-1.8-.5-2.7-.6c-.9,0-1.8-.3-2.7-.4s-1.9.5-2.8.4c-.9-.1-1.7-.5-2.6-.7s-1.8-.2-2.7-.4c-.9-.2-1.8-.2-2.7-.5s-1.7-.7-2.5-1c-.9-.3-1.8-.4-2.6-.7-.8-.3-1.6-.8-2.4-1.2s-1.8-.3-2.7-.6c-.8-.4-1.3-1.4-2.1-1.8s-1.9-.2-2.7-.6c-.8-.4-1.4-1.1-2.2-1.6s-1.7-.8-2.4-1.3c-.7-.5-1.1-1.5-1.8-2.1-.7-.6-1.4-1.1-2-1.7ZM484.2,621.3c.8-.7,1.4-1.7,1.9-2.8.5-.9,1.1-1.9,1.3-3.1.1-.9,0-1.9,0-2.8s.4-1.8.5-2.7.1-1.8.2-2.7c.1-.9,0-1.9,0-2.8.1-.9.6-1.8.7-2.7.1-.9.8-1.7.9-2.6.1-.9-.5-1.9-.4-2.8.1-.9.9-1.7,1-2.6s0-1.8.2-2.7.4-1.8.6-2.7c.1-.9.2-1.8.3-2.7.1-.9,0-1.9,0-2.8.1-.9.5-1.8.6-2.7s.1-1.8.2-2.7c.1-.9,0-1.8.2-2.7.1-.9.7-1.7.8-2.6.1-.9.7-1.7.9-2.6.1-.9-.4-1.9-.3-2.8s.7-1.7.9-2.6,0-1.8,0-2.8c.1-.9,0-1.8.2-2.7.1-1.2.3-2.3.1-3.3-.2-1.2-.6-2.1-1.1-3.1-.5-.9-1-1.8-1.9-2.3s-1.8-.5-2.9-.6c-1.1-.2-2.2-.7-3.2-.5s-1.9.9-2.7,1.6-1.8,1.4-2.3,2.5c-.4.9-.4,2.1-.6,3.4-.1.9-.6,1.8-.8,2.7s0,1.9,0,2.8-.2,1.8-.3,2.7c-.1.9-.4,1.8-.6,2.7s-.2,1.8-.3,2.7.1,1.9,0,2.8c-.1.9-.3,1.8-.5,2.7s-.5,1.8-.6,2.7c-.1.9-.3,1.8-.4,2.7s.1,1.9,0,2.8c-.1.9-.7,1.7-.8,2.6-.1.9-.4,1.8-.5,2.7s0,1.8-.1,2.7-.4,1.8-.5,2.7.2,1.9,0,2.8c-.1.9-.8,1.7-1,2.6s.2,1.9.1,2.8c-.1.9-.2,1.8-.3,2.7s-1,1.7-1.1,2.6c-.1.9.1,1.9,0,2.8-.1.9-.4,1.8-.5,2.7-.2.5.3,1.2.3,2.1s-.4,1.9-.2,2.7c.3.9.5,1.9,1.1,2.6.6.7,1.8.6,2.6,1,.8.4,1.4,1.1,2.3,1.3,1.1.2,2.2.2,3.1,0,1-.2,1.9-.7,2.8-1.4Z"/>
    <path class="st1" d="M633.2,552.4c.6.7.8,1.7,1.4,2.4s1.3,1.3,1.8,2c.5.7.7,1.7,1.2,2.5.5.8,1.3,1.4,1.7,2.2s1.2,1.5,1.5,2.3c.4.8.6,1.7.9,2.6s.3,1.8.6,2.7,0,1.9.2,2.8c.2.9.3,1.8.4,2.7.1.9.6,1.8.7,2.7s-.4,1.8-.4,2.7c0,.8.2,1.6.2,2.3,0,.9.6,1.7.5,2.4,0,.9-.5,1.6-.6,2.3-.1.9,0,1.9-.1,2.8-.2.9-.7,1.7-1,2.7s-.8,1.7-1.1,2.6c-.3.9-.7,1.7-1.1,2.6s0,2-.5,2.9c-.4.9-1.5,1.4-1.9,2.2-.5.8-.7,1.8-1.2,2.5-.5.8-.7,1.8-1.3,2.6-.6.7-1.2,1.4-1.8,2-.6.7-1.7.8-2.4,1.4s-1.1,1.4-1.8,2c-.7.6-1.4,1.1-2.1,1.6-.7.5-1.2,1.4-2,1.9s-1.5,1-2.3,1.4c-.8.4-1.9.2-2.7.6s-1.5,1.1-2.3,1.4c-.9.3-1.9.6-2.8.8-.9.2-1.9.4-2.9.6s-1.9.5-2.9.6-2-.4-3-.3-1.9.7-2.9.7c-1,0-2-.7-2.9-.7-1,0-2,0-2.9,0-1-.1-1.9-.3-2.9-.5-.9-.1-1.8.2-2.6,0-.9-.1-1.7-.3-2.5-.4-.8-.1-1.6-.5-2.4-.7-.8-.1-1.6-.2-2.5-.3-.8-.1-1.6,0-2.5-.2-.8-.1-.8-.1-.8.5-.1.9-.8,1.8-.9,2.7-.1.9.1,1.9,0,2.9-.1.9-.8,1.8-1,2.7s.5,2,.3,2.9c-.1.9-.6,1.8-.7,2.8s-.4,1.8-.6,2.8,0,1.9-.2,2.8-.6,1.8-.7,2.8c-.1.9-.1,1.9-.2,2.8-.1.9-.6,1.8-.7,2.8s0,1.9-.2,2.8-.2,1.9-.3,2.8-.1,1.9-.3,2.8-.1,1.9-.3,2.8-.3,1.9-.5,2.8-.9,1.8-1,2.7c-.2.9-.3,1.7-.9,2.1-.7.4-1.5,0-2.4,0-.9-.2-1.9.2-2.8,0-.9-.2-1.7-.7-2.6-.9-.9-.2-1.8-.5-2.6-.6s-1.9.5-2.8.3c-.9-.2-1.7-.7-2.6-.9s-1.7-.6-2.6-.8c-.9-.2-1.8,0-2.7-.2s-1.8-.1-2.7-.3-1.8-.2-2.7-.3c-.9-.2-1.8-.4-2.7-.5-.9-.2-1.8-.3-2.7-.5-.9-.2-1.7-.5-2.6-.7s-1.7-.7-2.6-.9c-.9-.2-1.5-.3-2-.9-.5-.6-.7-1.1-.5-2,.1-.9.5-1.8.6-2.8s-.6-2-.4-2.9.9-1.8,1-2.7c.1-.9.4-1.8.5-2.8.1-.9-.5-2-.4-2.9s.6-1.8.7-2.7.2-1.9.4-2.8c.1-.9.6-1.8.7-2.7.1-.9.4-1.8.5-2.8.1-.9.2-1.9.3-2.8.1-.9.1-1.9.2-2.8.1-.9.3-1.8.5-2.8s0-1.9.2-2.8.3-1.8.5-2.8c.1-.9.4-1.8.6-2.8s0-1.9.2-2.8c.1-.9.4-1.8.5-2.8.1-.9.5-1.8.6-2.7.1-.9.6-1.8.8-2.7.1-.9-.4-1.9-.2-2.9.1-.9.5-1.8.7-2.7s.6-1.8.7-2.7-.5-2-.4-2.9c.1-.9.9-1.8,1.1-2.7s-.2-1.9,0-2.9c.1-.9.2-1.9.4-2.8s.5-1.8.7-2.7c.1-.9.2-1.9.3-2.8.1-.9.3-1.8.4-2.8.1-.9.6-1.8.8-2.7s.4-1.8.6-2.8c.1-.9-.1-1.9,0-2.8s-.1-1.9,0-2.8c.1-.9,1-1.8,1.1-2.7.1-.9,0-1.9,0-2.8s.5-1.8.6-2.7-.1-1.9,0-2.8.4-1.8.5-2.8c.1-.9.6-1.8.8-2.7s-.1-1.9,0-2.8c.1-.9.7-1.8.8-2.7.1-.9-.3-1.9-.2-2.9.1-.9.4-1.8.6-2.8s.2-1.9.3-2.8c.1-.9.2-1.9.3-2.8.1-.9,1.2-1.1,1.8-1.5.7-.4,1.3-1.2,2.2-1.1.9.2,1.8.3,2.7.5s1.8.6,2.7.8c.9.2,1.8.3,2.8.4.9.2,1.8.3,2.7.5.9.2,1.9,0,2.8.2s1.7,1.1,2.6,1.2c.9.2,1.9-.2,2.8,0,.9.2,1.9.2,2.8.3s1.8.3,2.7.4c.9.2,1.8.5,2.7.6s1.8.5,2.7.6c.9.1,1.8.5,2.7.7.9.1,2-.5,2.9-.3s1.8.4,2.7.5,1.8.5,2.7.6c.9.1,1.7.9,2.6,1.1.9.1,2-.6,2.9-.5s1.8.4,2.7.6c.9.1,1.7.6,2.6.8.9.2,1.9-.1,2.8,0,.9.2,1.6,1.2,2.4,1.4s1.8.3,2.6.6c.9.3,1.8.4,2.6.7.8.3,1.5,1,2.3,1.4.8.4,1.8.5,2.6.9.8.4,1.5,1,2.3,1.4s1.6.8,2.3,1.4c.7.5,1.7.8,2.4,1.4.7.6,1.2,1.4,1.8,2s1.4,1.1,2,1.8ZM597.1,590.7c.7-.5,1.7-.7,2.2-1.4.5-.6.7-1.5,1.1-2.3.3-.7,1-1.4,1.2-2.3.2-.8,0-1.7.1-2.6.1-.7-.2-1.8-.2-3.2s0-1.8-.1-2.7-.2-1.8-.6-2.6-.5-1.9-1.1-2.6c-.6-.7-1.3-1.3-2-1.8s-1.7-.5-2.5-.8-1.5-1-2.4-1.1c-1.3-.2-1.9,0-3.2-.3-.8-.1-.8.4-.8,1-.1,1-.6,1.9-.8,2.9-.1,1,0,2-.1,2.9-.1,1-.6,1.9-.8,2.8s-.5,1.9-.7,2.9-.4,1.9-.5,2.9.4,2,.3,3-1,1.8-1.1,2.8,0,2-.2,2.9c-.3.6.1.6,1,.7,1.2.2,1.8.3,2.9.5,1,.2,2,.9,2.9.9s2-.6,2.9-.9,1.6-1.1,2.4-1.7Z"/>
    <path class="st1" d="M639.6,676.5c-.5-.6-.8-1-.6-1.9.1-.9-.4-1.9-.3-2.8s1-1.7,1.1-2.6-.3-1.9-.1-2.8c.1-.9.6-1.8.7-2.7s.6-1.8.7-2.7c.1-.9-.2-1.9,0-2.8s.3-1.8.4-2.7c.1-.9.3-1.8.4-2.7.1-.9.3-1.8.5-2.7.1-.9.7-1.8.8-2.7s.2-1.8.3-2.8-.2-1.9,0-2.8c.1-.9.8-1.7.9-2.7s-.2-1.9,0-2.8c.1-.9.3-1.8.4-2.7s.6-1.8.7-2.7.3-1.8.4-2.7-.2-1.9,0-2.8.9-1.7,1-2.6,0-1.9.2-2.8c.1-.9.4-1.8.6-2.7.1-.9,0-1.9.1-2.8.1-.9.2-1.8.3-2.8.1-.9.1-1.8.3-2.8s0-1.9.1-2.8c.1-.9.7-1.8.8-2.7.1-.9.2-1.8.3-2.8.1-.9,0-1.9,0-2.8.1-.9.7-1.8.9-2.7s.4-1.8.5-2.7c.1-.9.4-1.8.5-2.7s.2-1.8.4-2.7c.1-.9.4-1.8.6-2.7.1-.9.2-1.8.3-2.8s-.3-1.9-.2-2.8.2-1.8.3-2.8.9-1.7,1-2.7-.2-1.9,0-2.8.3-1.8.4-2.7,0-1.9,0-2.8.6-1.8.7-2.7.2-1.8.3-2.8.2-1.8.4-2.7c.1-.9.6-1.8.7-2.7.1-.9,0-1.9.2-2.8s0-1.9.2-2.8c.1-.9.9-1.7,1.5-2.1.7-.4,1.6-.6,2.5-.5.9,0,1.7.8,2.6.9.9,0,1.8.2,2.7.3s1.8-.3,2.7-.2,1.8-.2,2.7-.1c.9,0,1.7.9,2.6,1,.9,0,1.8,0,2.7.2s1.8-.2,2.7-.2,1.8.4,2.7.5c.9,0,1.8.3,2.7.4s1.8-.5,2.7-.4c.9,0,1.8.1,2.7.2.9,0,1.8,0,2.7,0s1.8.5,2.7.6c.9,0,1.7.3,2.2.8.5.5.2,1.2,0,2.1-.1.9.1,1.9,0,2.8s-.2,1.8-.3,2.7c-.1.9-.2,1.8-.3,2.7-.1.9-.1,1.8-.3,2.8s-.8,1.7-.9,2.7-.4,1.8-.5,2.7c-.1.9-.2,1.8-.3,2.7-.1.9,0,1.9,0,2.8-.1.9-.2,1.8-.3,2.7-.1.9,0,1.9-.1,2.8-.1.9-.8,1.7-.9,2.7-.1.9-.5,1.8-.6,2.7-.1.9.3,1.9.2,2.8-.1.9-.3,1.8-.5,2.7-.1.9-.7,1.8-.8,2.7s-.4,1.8-.6,2.7,0,1.9,0,2.8-.1,1.8-.2,2.8c-.1.9-.5,1.8-.6,2.7s.2,1.9,0,2.8c-.1.9-1,1.7-1.1,2.6-.1.9.6,2,.5,2.9-.1.9-.5,1.8-.6,2.7s-.2,1.8-.3,2.7c-.1.9-.1,1.8-.3,2.8s-1.1,1.7-1.2,2.6.6,1.9.5,2.9c-.1.9-.6,1.8-.7,2.7-.1.9-.1,1.8-.3,2.8-.1.9-.8,1.7-.9,2.7s-.3,1.8-.4,2.7.3,1.9.2,2.8c-.1.9-.4,1.8-.5,2.7s-.3,1.8-.5,2.7,0,1.9,0,2.8c-.1.9-.7,1.8-.8,2.7-.3.6,0,1.1.9,1.1,1,0,1.9-.4,2.9-.3s1.9.7,2.8.8c1,0,1.9,0,2.9,0,1,0,1.9-.3,2.9-.3s1.9.6,2.8.7c1,0,1.9-.1,2.9,0,1,0,1.9.3,2.9.3,1,0,1.9.3,2.9.3s1.9-.5,2.9-.5c1,0,1.9-.2,2.9-.2,1,0,1.9.3,2.9.3,1,0,1.9,0,2.9,0s1.9.5,2.9.6,1.9-.7,2.9-.7,1.9.9,2.9.9c1.1,0,1.7,0,2.2.5.5.5.4,1,.3,1.9-.1.9,0,1.9,0,2.8s.1,1.9,0,2.8c-.1.9-1,1.7-1.2,2.7-.1.9.4,2,.2,2.9s-.5,1.8-.6,2.8-.5,1.8-.7,2.8-.3,1.9-.4,2.8c-.1.9.4,2,.3,2.9-.1.9-.7,1.8-.9,2.7-.2,1-.6,1.8-1.2,2.3s-1.5.7-2.5.7c-.9,0-1.9,0-2.8,0-.9,0-1.9-.1-2.8-.2-.9,0-1.9-.3-2.8-.3s-1.9.2-2.8.2-1.9-.4-2.8-.4c-.9,0-1.9.1-2.8,0s-1.9,0-2.8-.1c-.9,0-1.9-.5-2.8-.5-.9,0-1.9.2-2.8.1-.9,0-1.9-.3-2.8-.3-.9,0-1.9-.1-2.8-.2-.9,0-1.9,0-2.8,0-.9,0-1.9.4-2.9.4s-1.8-.8-2.8-.9-1.9.6-2.9.5c-.9,0-1.9-.3-2.8-.4-.9,0-1.9-.3-2.8-.4-.9,0-1.9-.1-2.8-.2-.9,0-1.9,0-2.8,0-.9,0-1.9-.4-2.8-.5s-1.9,0-2.8-.2c-.9,0-1.8-.6-2.8-.7s-1.9,0-2.8-.1c-.9,0-1.9.3-2.9.2-.9,0-1.8-.9-2.7-1-.9,0-2,.5-2.9.4-.9-.1-1.8-.8-2.8-.9-.9-.1-1.9,0-2.8,0-.9-.1-1.8-.6-2.8-.7-.9-.1-1.4-.3-1.9-.9Z"/>
    <path class="st1" d="M837.5,565.3c-.7.7-1.1,1.9-2.2,2.2-.9.2-1.9,0-2.9.3s-1.8.7-2.7.9c-.9.2-1.8.5-2.8.7s-2,0-2.9.1c-.9.2-1.8.5-2.8.7s-1.8.7-2.7.9c-.9.2-1.9.4-2.8.6-.9.2-1.9,0-2.9.2-.9.2-1.8.6-2.8.8s-1.9,0-2.9.2c-.9.2-1.7,1.1-2.7,1.2s-2-.1-2.9,0-1.9,0-2.9.2c-.9.2-1.8.9-2.7,1.1-.9.2-1.9.2-2.8.3-.8.1-1.6.3-1.6.9-.1,1,0,1.9-.2,2.7s.2,1.9,0,2.8c-.1.9-.7,1.8-.8,2.7-.1.9-.2,1.8-.3,2.7s-.5,1.8-.6,2.7c-.1.9-.2,1.8-.3,2.7s.1,1.8,0,2.8c-.3.7,0,1.2.9,1.1,1-.1,1.9,0,2.8-.2,1-.1,1.8-.6,2.7-.7,1-.1,1.8-.6,2.7-.8.9-.1,1.9.3,2.8.1.9-.2,1.8-.4,2.7-.6s1.8-.2,2.8-.3,1.8-.4,2.7-.6c.9-.2,1.8-.4,2.7-.6,1.1-.2,1.8-.4,2.3,0,.5.4.5,1,.4,2-.1,1,.2,2,0,2.9-.1,1-.2,1.9-.3,2.9s-1.1,1.8-1.2,2.8c-.1,1,0,2,0,2.9s-.6,1.9-.7,2.8c-.1,1,.6,2,.5,3s-.6,1.9-.8,2.8-.6,1.9-.8,2.8c-.1,1,.3,2,.2,3-.2,1-.9,1.9-1.5,2.5s-1.5,1.2-2.6,1.4c-1,.2-1.9,0-2.8.2-1,.2-1.9-.2-2.8,0-.9.2-1.8.7-2.7.9-.9.2-1.8.3-2.7.4-.9.1-1.8.6-2.7.7s-1.9-.3-2.8-.2c-.9.1-1.8.4-2.7.5s-1.7.8-2.7.9c-.8,0-.9.2-.9.8-.1,1,0,1.9-.2,2.8-.1,1-.7,1.8-.8,2.7-.1,1,0,1.9,0,2.8-.1.9-.2,1.8-.3,2.8s-.4,1.8-.6,2.7-.5,1.7-.6,2.7c-.1.9-.2,1.8-.4,2.8-.3.7,0,.6.8.5.9-.1,2,.5,2.9.4.9-.1,1.8-1.2,2.7-1.3s1.9.2,2.9,0c.9-.1,1.9,0,2.9,0,.9-.1,1.8-.6,2.8-.8.9-.2,1.8-.8,2.7-1,.9-.2,1.9-.2,2.8-.4s1.9-.2,2.8-.4c.9-.2,1.9,0,2.9-.1.9-.2,1.9-.2,2.8-.4s1.8-.6,2.7-.8,1.9-.2,2.8-.4c.9-.2,1.8-.9,2.7-1.1.9-.2,1.8-.6,2.7-.8.9-.2,2,.3,2.9,0,1.1-.2,1.5,0,2,.4.5.4.8.6.7,1.6-.1,1-.2,1.9-.3,2.9s0,1.9-.2,2.9c-.1,1-.6,1.9-.7,2.8s0,2-.1,2.9-.5,1.9-.7,2.8c-.1,1,0,2,0,2.9s.1,2,0,2.9-.9,1.8-1,2.8c-.1,1-.5,1.9-.6,2.8-.2.9,0,2-.6,2.7-.7.7-1.7,1.2-2.8,1.4-.9.2-1.8.4-2.8.6-.9.2-2-.3-2.9,0s-1.8.8-2.7,1c-.9.2-2-.3-2.9-.2s-1.7.9-2.7,1.1c-.9.2-1.9-.2-2.9,0s-1.8.6-2.7.7-1.8.4-2.8.6c-.9.1-1.9,0-2.8,0-.9.1-1.7,1.1-2.7,1.2s-1.9,0-2.8,0c-.9.1-1.8.4-2.8.5-.9.1-1.9-.3-2.9-.2-.9.1-1.9.3-2.8.4s-1.9,0-2.8,0c-.9.1-1.9.2-2.8.3-.9,0-1.9.1-2.8.2s-1.8.8-2.7.9c-.9,0-1.9-.2-2.8-.1-.9,0-1.9.2-2.8.3-.9,0-1.9.2-2.8.3-.9,0-1.9-.2-2.8-.1-.9,0-1.9.3-2.8.4-.9,0-1.9,0-2.8,0-.9,0-1.8,1-2.8,1s-1.9-.8-2.9-.7c-.9,0-1.8,1-2.8,1s-1.9-.6-2.8-.6c-.9,0-1.9.6-2.8.6-.9,0-1.3-.8-1.8-1.3-.5-.5-.8-.8-.6-1.7.1-.9-.3-1.9-.1-2.8.1-.9.8-1.8.9-2.7s-.2-1.9,0-2.8c.1-.9.7-1.8.9-2.7.1-.9-.2-1.9,0-2.8s.2-1.8.3-2.8,1-1.7,1.1-2.6c.1-.9,0-1.9.1-2.8.1-.9,0-1.9.2-2.8s.2-1.8.3-2.8c.1-.9.8-1.7,1-2.7s-.4-1.9-.3-2.8c.1-.9.3-1.8.5-2.7.1-.9.4-1.8.5-2.7s.5-1.8.7-2.7c.1-.9-.3-1.9-.2-2.8.1-.9.8-1.8.9-2.7.1-.9.2-1.8.3-2.8s.6-1.8.7-2.7-.3-1.9-.2-2.8c.1-.9.3-1.8.4-2.7s-.1-1.9,0-2.8.5-1.8.6-2.7c.1-.9.1-1.8.3-2.8s1.1-1.7,1.2-2.6c.1-.9.2-1.8.3-2.8.1-.9-.5-1.9-.4-2.9.1-.9.3-1.8.4-2.7.1-.9.4-1.8.5-2.7.1-.9.9-1.7,1-2.7.1-.9,0-1.9,0-2.8.1-.9.7-1.8.8-2.7.1-.9-.4-1.9-.2-2.8s.2-1.8.3-2.8.4-1.8.5-2.7c.1-.9.2-1.8.4-2.7s0-1.9.2-2.8,1.1-1.7,1.2-2.6c.1-.9.3-1.8.4-2.7.1-.9,0-1.9.2-2.8.1-.9.2-1.8.3-2.8s0-1.9,0-2.8.2-1.8.4-2.7,0-1.9.2-2.8c.1-.9,1.1-1.7,1.2-2.6s-.1-1.9,0-2.8c.1-.9.1-1.8.3-2.8.1-.9.5-1.8,1.2-2.3.7-.5,1.6-.5,2.5-.6.9,0,1.9-.2,2.8-.3s1.9-.4,2.8-.5,1.9.2,2.9.1c.9,0,1.8-.7,2.8-.8s1.9,0,2.8,0,1.8-.7,2.8-.8c.9-.1,2,.6,2.9.5.9-.1,1.8-.9,2.7-1s2,.4,2.9.3c.9-.1,1.8-1.1,2.7-1.2s2,.6,2.9.5,1.9-.3,2.8-.4,1.8-.5,2.8-.6c.9-.1,1.8-.8,2.7-1s1.9,0,2.9,0c.9-.2,1.9,0,2.9,0,.9-.2,1.8-.5,2.8-.7.9-.2,1.8-.9,2.7-1.1.9-.2,1.9-.2,2.8-.4.9-.2,1.9-.2,2.8-.4.9-.2,1.8-.5,2.8-.7s1.8-.4,2.8-.6c.9-.2,1.9,0,2.9-.2.9-.2,1.8-.8,2.7-1,.9-.2,1.8-.4,2.8-.6s1.9-.3,2.8-.5c.9-.2,1.8-.5,2.7-.7.9-.2,1.8-.6,2.7-.8s2,0,2.9-.2c1.1-.3,1.6-.5,2.1-.1.5.4,1.2.9,1.1,1.8-.1,1-.8,1.9-1,2.8s-.3,1.9-.5,2.9.2,2,0,3-.5,1.9-.6,2.9-.4,1.9-.6,2.9c-.1,1,.2,2,0,3s-1,1.8-1.1,2.8c-.1,1-.1,2-.2,2.9s.4,2,.3,3c-.2.9-1.3,1.4-2,2.1Z"/>
  </g>
  <g>
    <g>
      <path class="st0" d="M965.8,553.5c-.7.1-.5.6-.5,1.2-.1.9-.3,1.9-.4,2.8,0,.9-.3,1.9-.4,2.8,0,.9.2,1.9.1,2.9,0,.9-.5,1.9-.5,2.9s-.2,1.9-.2,2.9c0,1,0,1.9,0,2.9s0,1.9,0,2.9c0,1,.7,1.9.7,2.9,0,1-.7,2-.7,2.9,0,1,.6,1.9.6,2.9,0,1,.3,1.9.4,2.9s-.4,2-.3,2.9.6,1.9.7,2.8c0,1-.3,2-.1,2.9s.6,1.6.7,2.5.5,1.6.7,2.5-.1,1.8,0,2.6.5,1.6.7,2.5c.2.9.3,1.7.4,2.5,0,1.2,0,2.1-.3,2.9s-.4,2.1-1.3,2.7c-.7.5-1.7.8-2.7,1.3-.9.5-1.7,1.1-2.6,1.4s-2,0-2.9,0-1.9.5-2.8.4c-1,0-2,.1-2.9,0-.9-.2-1.7-.9-2.6-1.3-.9-.4-1.6-1-2.4-1.5s-1.5-1.1-2.2-1.7c-.7-.6-1.7-1-2.3-1.7s-1.1-1.6-1.7-2.3-1.4-1.3-1.9-2.2-.6-1.9-1-2.7-1.3-1.5-1.7-2.4c-.4-.9-.2-2-.5-2.9-.4-.9-1.3-1.6-1.6-2.4-.3-.9-.7-1.8-1-2.7-.3-.9-.1-1.9-.3-2.9-.2-.9-.7-1.8-.9-2.7-.2-.9.4-2,.2-2.9s-.3-1.9-.4-2.8c-.1-.9-.8-1.8-.9-2.8s-.3-1.9-.3-2.8c0-.9,0-1.9,0-2.8,0-.9.5-1.9.5-2.8,0-.9-.2-1.9-.2-2.8s.3-1.9.4-2.8c0-.9.2-1.9.3-2.8,0-.9-.3-1.9-.3-2.8s-.2-1.9-.2-2.8c0-.9,0-1.9,0-2.8,0-.9.3-1.9.3-2.8s.5-1.9.5-2.8c0-.9.2-1.9.1-2.8s-.9-1.9-.9-2.8c0-.9.6-1.9.6-2.9,0-.9-.5-1.8-.6-2.8,0-.9,0-1.9-.1-2.8-.1-.9,0-1.9-.2-2.8-.2-.9-.7-1.8-.9-2.7-.2-.9,0-1.9-.3-2.8-.2-.9-1-1.7-1.3-2.6s-.6-1.8-.9-2.7-.3-1.9-.6-2.8-.5-1.8-.8-2.7c-.3-.9-.2-1.9-.5-2.8-.3-.9-1.2-1.6-1.5-2.5-.3-.9-.8-1.7-1.1-2.6-.3-.9-.5-1.8-.9-2.7s0-2-.3-2.9-.7-1.8-1-2.7c-.3-.9-.8-1.7-1.1-2.6s-1-1.6-1.3-2.5c-.3-.9-.8-1.7-1.1-2.6-.3-.9-.6-1.8-.9-2.7s-.1-1.9-.4-2.9c-.3-.9-.5-1.8-.8-2.7-.2-.9-.7-1.7-.9-2.6-.2-.9-.7-1.7-.9-2.6s-.7-1.7-.9-2.6c-.2-.9-.2-1.8-.4-2.8-.2-.9-.4-1.8-.6-2.7s-.6-1.8-.8-2.7c-.2-.9.3-1.9,0-2.9s-.7-1.7-.9-2.7c-.2-.9-.6-1.8-.8-2.7s.3-1.9.1-2.8c-.2-.9-.5-1.8-.7-2.7-.2-.9,0-1.9-.2-2.8-.2-.9-.3-1.8-.4-2.8-.1-.9-.7-1.8-.8-2.7-.1-.9-.2-1.9-.3-2.8-.1-.9-.2-1.9-.3-2.8s-.4-1.8-.5-2.7.1-1.9,0-2.8-.9-1.8-1-2.7,0-1.9-.1-2.8c0-.9-.2-1.9-.2-2.8,0-.9-.1-1.9-.2-2.8,0-.9-.2-1.9-.2-2.8s0-1.9,0-2.8c0-.9.2-1.9.2-2.8,0-.8.2-1.8.2-2.9,0-.9.3-1.9.4-2.9s.2-1.9.4-2.8c.2-1,.2-2.1.6-2.8.5-.9,1.1-1.8,2-2.2.8-.3,1.9-.7,3.1-.4.7.2,1.3,1.1,2.2,1.5.7.3,1.4.8,2.2,1.2.7.4,1.5.8,2.2,1.2s1.7.5,2.4.9c.8.4,1.7.6,2.4,1,.9.5,1.5,1,2.2,1.4.8.4,1.4,1.3,2.2,1.7s2,.3,2.8.8,1.6.9,2.4,1.4c.8.5,1.3,1.5,2,2s1.6,1,2.3,1.5,1.8.6,2.6,1.1c.8.5,1.6,1,2.3,1.6.8.5,1.3,1.4,2,1.9.8.5,1.9.6,2.6,1.2.7.6,1.2,1.5,1.9,2.1.7.6,1.7.9,2.4,1.5s1.5,1.2,2.2,1.7c.7.6,1.5,1.2,2.2,1.8s1,1.7,1.7,2.4,1.6,1,2.3,1.6c.7.6,1.4,1.2,2.1,1.9s1.6,1.1,2.2,1.7c.7.7,1.1,1.6,1.7,2.2.7.7,1.7.9,2.4,1.6s1.2,1.4,1.8,2.1,1.1,1.6,1.7,2.3,1.4,1.2,2,1.9,1.3,1.4,1.9,2.1c.6.7.9,1.7,1.5,2.4.6.7.8,1.7,1.4,2.5.6.7,1.4,1.3,2,2s1.1,1.5,1.6,2.3c.5.8.9,1.6,1.5,2.4.5.8,1.2,1.4,1.7,2.2.5.8,1.1,1.5,1.6,2.3.5.8,1,1.6,1.4,2.4s.7,1.7,1.2,2.5c.5.8.9,1.6,1.3,2.5.5.8,1.1,1.5,1.6,2.3s.9,1.6,1.4,2.4c.4.8,1,1.6,1.4,2.4.4.8,1.2,1.5,1.6,2.3.4.8.8,1.7,1.2,2.5s.6,1.8,1,2.6,1.2,1.5,1.5,2.4.7,1.7,1,2.6.4,1.8.8,2.7.7,1.7,1.1,2.6c.3.9.6,1.8.9,2.6.3.9.2,1.9.5,2.8.3.9,1,1.6,1.3,2.5s.9,1.7,1.1,2.6c.3.9.2,1.9.4,2.8.3.9.1,1.9.4,2.8.2.9,1.2,1.6,1.4,2.5.2.9.4,1.8.7,2.7.2.9.4,1.8.6,2.7.2.9-.3,2-.1,2.9.2.9,1,1.7,1.2,2.6s0,1.9.2,2.8c.2.9.5,1.8.6,2.7s.2,1.9.3,2.8c.1.9.2,1.9.3,2.8s0,1.9,0,2.8,0,1.9,0,2.8.2,1.9.2,2.8c0,.9.4,1.8.5,2.8,0,.9.3,1.9.3,2.8,0,.9-.3,1.9-.3,2.8,0,.9.3,1.9.3,2.8s-.1,1.9-.1,2.8c0,.9-.1,1.9-.2,2.8s.2,1.9.2,2.8c0,.9-.5,1.8-.6,2.8s-.2,1.9-.3,2.8-.5,1.8-.5,2.8c0,.9.1,1.9,0,2.8-.1.9-.6,1.8-.7,2.7-.1.9,0,1.9-.2,2.8-.1.9,0,1.9-.2,2.8-.2.9-.3,1.8-.5,2.8-.2.9-.8,1.7-1,2.7-.2.9-.1,1.9-.3,2.8s-.6,1.8-.8,2.7,0,1.9-.2,2.8-.8,1.7-1.1,2.6c-.2.9-.6,1.8-.9,2.7s-.4,1.8-.7,2.7c-.3.9-.5,1.8-.8,2.7s-.8,1.7-1.1,2.6c-.3.9,0,2-.3,2.9-.3.9-.8,1.7-1.2,2.6s-1,1.6-1.3,2.5-.7,1.7-1.1,2.6c-.4.9-.8,1.7-1.2,2.5-.4.9,0,2-.4,2.9s-.9,1.6-1.3,2.5-1.5,1.3-1.9,2.2-.6,1.8-1,2.6c-.4.8-1.1,1.5-1.5,2.3-.4.8-.4,1.9-.8,2.7-.5.8-.8,1.7-1.3,2.5s-.8,1.7-1.3,2.5c-.5.8-1.4,1.3-1.9,2.1s-1.2,1.4-1.7,2.2c-.5.8-.7,1.7-1.3,2.5-.5.8-1.2,1.5-1.7,2.2-.5.8-.9,1.6-1.4,2.4s-1.3,1.3-1.9,2.1c-.6.7-.9,1.7-1.4,2.4-.6.7-1.4,1.2-2,2s-.9,1.7-1.5,2.4-1.2,1.4-1.8,2.1c-.6.7-1.6,1.1-2.2,1.8-.6.7-.8,1.8-1.4,2.5-.6.7-1.2,1.5-1.8,2.1-.6.7-1.4,1.2-2.1,1.9-.5.6-1.6.9-2.4,1.7-.6.6-1.2,1.4-1.9,2.2-.7.6-1.7,1-2.4,1.7-.7.6-1.1,1.6-1.8,2.3-.7.6-1.4,1.3-2.2,1.9s-1.6,1.1-2.3,1.8c-.7.6-1.2,1.6-1.9,2.2-.8.6-1.4,1.4-2.2,1.9s-1.5,1.3-2.3,1.8c-.8.6-1.8,1-2.5,1.4-1,.6-1.8,1.3-2.5,1.6-1,.4-2,0-2.8-.3-.9-.2-1.6-.6-2.2-1.3-.5-.7-1.1-1.4-1.5-2.3-.3-.8-.7-1.7-.9-2.6-.2-.9.3-1.9.2-2.8s-.5-1.9-.4-2.7c0-.9.3-1.9.4-2.7.2-.9.3-1.8.6-2.7.3-.9.4-1.8.8-2.7.4-.8.7-1.7,1.2-2.5.4-.8,1.6-1.2,2.1-2,.5-.8.8-1.7,1.3-2.4s.7-1.8,1.3-2.5c.6-.7,1.5-1.2,2.1-1.9.6-.7,1.6-1.1,2.2-1.8.6-.7,1.1-1.5,1.7-2.2s.8-1.7,1.4-2.4c.6-.7,1.6-1.1,2.1-1.8.6-.7.9-1.6,1.4-2.4.5-.7,1.2-1.4,1.7-2.1s1.2-1.4,1.8-2.1c.5-.7,1.3-1.4,1.8-2.1.5-.8.6-1.8,1.1-2.6.5-.8.8-1.6,1.3-2.4.5-.8.8-1.6,1.3-2.4.5-.8.9-1.6,1.4-2.4s1.2-1.4,1.7-2.2c.4-.8,1.1-1.5,1.5-2.3.4-.8.3-1.9.7-2.7.4-.8,1.1-1.5,1.5-2.3s.3-1.9.6-2.7,1.4-1.4,1.7-2.3c.3-.9.2-1.9.5-2.7s1.1-1.6,1.4-2.4c.3-.9,0-1.9.2-2.8s1-1.6,1.2-2.5c.2-.9.5-1.8.7-2.7.2-.9-.4-1.9-.2-2.8.2-.9.9-1.7,1-2.6s0-1.8.1-2.7-.1-1.8,0-2.7.6-1.9.6-2.8-.2-1.9-.2-2.9c0-1,.4-1.9.3-2.8,0-1-.3-1.9-.3-2.8,0-1-.1-1.9-.2-2.8s-.4-1.9-.5-2.8-.3-1.9-.4-2.8c-.1-.9.1-1.9,0-2.9-.2-.9-.7-1.8-.9-2.7-.2-.9.4-2,.1-3-.2-.9-1.4-1.6-1.6-2.5s-.3-1.9-.6-2.8c-.3-.9-.8-1.7-1.2-2.6s-.6-1.8-1-2.7c-.4-.9-.9-1.7-1.3-2.5s-.8-1.6-1.3-2.4Z"/>
      <path class="st0" d="M910.5,675.7c-.6-.4-1.4-.9-2-1.9-.4-.8-1.1-1.5-1.5-2.4-.4-.9-.3-2-.6-2.8-.4-1.1-1.2-1.9-1.3-2.6s.6-2,.5-2.9c0-1-.3-1.9-.3-2.8,0-1-.3-2-.2-2.9s.4-1.9.6-2.8c.2-.9.6-1.9.9-2.7s1-1.7,1.4-2.5c.5-.8,1-1.6,1.5-2.4.5-.8,1-1.6,1.6-2.3s1.5-1.2,2.1-1.9c.6-.7,1.1-1.5,1.8-2.2s1.3-1.4,2-2,.9-1.7,1.6-2.4,1.5-1.2,2.2-1.8c.7-.7,1.4-1.3,2.1-2,.6-.7,1.4-1.3,2-2,.6-.7.9-1.7,1.5-2.5.4-.5,1.1-1.2,1.7-2.1s.9-1.5,1.4-2.3c.5-.8,1.1-1.5,1.6-2.2s1.4-1.3,1.9-2c.7-.9,1.1-1.7,1.6-2.1.5-.4.3-.3,1,0,.5.2,1,.7,1.8,1.4.6.5,1.2,1,1.8,1.6.7.6,1.4,1.2,1.9,1.6.7.5,1.9.2,2.6.6.8.4,1.5.8,2.3,1.1.8.3,1.5,1,2.4,1.1.9.2,1.8,0,2.6,0,.9,0,1.7,0,2.6,0s1.8.2,2.6,0,1.7-.2,2.5-.5c.3.3.1.8-.5,2.2-.3.7-.7,1.5-1.2,2.4-.4.7-.9,1.4-1.4,2.3-.4.7-1.1,1.4-1.6,2.2-.5.7-.6,1.7-1.1,2.5-.5.7-1.1,1.4-1.6,2.2-.5.7-1.1,1.4-1.6,2.2s-.9,1.6-1.5,2.3c-.5.8-.9,1.6-1.4,2.3-.6.8-1.4,1.3-1.9,1.9-.6.8-1.1,1.6-1.5,2.2-.8,1.1-1,2.1-1.3,2.4-.5.7-1.2,1.4-1.8,2.1-.6.7-1.6,1-2.2,1.7s-.9,1.6-1.5,2.3c-.6.7-1,1.6-1.6,2.2-.6.7-1.4,1.2-2,1.9-.6.7-1.6,1-2.3,1.7s-1.4,1.2-2.1,1.8-1.3,1.3-2,1.9c-.7.6-1,1.7-1.7,2.3-.7.6-1.2,1.5-1.9,2.1s-2,.5-2.7,1c-.8.6-1.1,1.7-1.9,2.1-.8.5-1.7.9-2.5,1.3-.8.4-1.6,1.2-2.5,1.4-.9.2-1.7-.4-2.6-1Z"/>
      <path class="st0" d="M921.9,532.5c.1.9.8,1.7.9,2.7,0,.9-.5,1.9-.4,2.8,0,.9.8,1.8.8,2.7,0,.9.2,1.8.2,2.8s-.8,1.8-.8,2.7c0,.9.1,1.8.1,2.7s-.3,1.8-.3,2.7c0,.9.2,1.8.2,2.8,0,.9,0,1.8,0,2.8,0,.9-.5,1.8-.5,2.7,0,.9-.2,1.8-.2,2.7,0,.9.6,1.9.6,2.8s-.4,1.8-.4,2.7c-.5.8-1.4,1.4-1.9,2.2-.5.8-.9,1.7-1.4,2.5s-1.2,1.5-1.7,2.3c-.5.8-1.1,1.6-1.7,2.4s-.7,1.9-1.3,2.6c-.6.8-1.6,1.2-2.1,2-.6.8-1.1,1.6-1.6,2.4-.6.8-.9,1.8-1.5,2.5s-1.3,1.4-1.9,2.2c-.6.7-1.4,1.3-2,2.1-.7.8-1.6,1.4-2.3,2.1-.7.8-.7,2.1-1.4,2.9s-1.9,1.1-2.6,1.8-1.3,1.6-2.1,2.3c-.4.4-1.4.7-2.3,1.5s-1.1,1.5-1.8,2.1-1.8.8-2.4,1.3c-1,.7-1.8,1.2-2.2,1.4s-.8.8-1.3.8c-.7-.1-1.6-.6-1.9-1.2-.6-1.1-.9-2.4-1.3-3.6-.3-1-.2-2-.4-3s-.9-2-.9-3c0-.9.6-1.7.7-2.5.1-.8,0-1.7.3-2.6s.8-1.5,1.1-2.3c.3-.8-.2-1.9.1-2.7.3-.8.8-1.5,1.1-2.3.4-.8.7-1.6,1.1-2.3.4-.8,1.4-1.1,1.9-1.9.4-.7.2-1.9.7-2.6.5-.8,1.5-1.3,2-2s1.2-1.4,1.8-2.2c.6-.8.9-1.7,1.4-2.4.6-.8,1.2-1.4,1.8-2.2.6-.8.8-1.8,1.3-2.5.6-.7,1.8-1,2.3-1.7.6-.7.7-1.8,1.3-2.6s.8-1.7,1.4-2.4c.5-.8,1.7-1.1,2.2-1.9.5-.8.8-1.7,1.3-2.5.5-.8.8-1.6,1.3-2.5s.7-1.7,1.1-2.6c.4-.8,1.6-1.2,2-2.1.4-.8.4-1.8.8-2.7.4-.8,1-1.6,1.4-2.5.2-.4.5-1.4,1-2.7s.5-1.7.9-2.7c.3-.9.2-1.9.5-2.9.3-.9,1.1-1.6,1.5-2.5s.6-1.9.9-2.7c.4-1,.9-1.8,1.3-2.6.6-1.5,1-2.8,1.3-2.8.5.7,1.2,1.7,1.6,2.7s.2,2,.5,3c.2,1,0,2.1.2,3Z"/>
      <path class="st0" d="M922.1,578.7c.3.8.9,1.4,1,2.3.1.9,0,1.8,0,2.7s.1,1.7.2,2.6c0,.9-.5,1.8-.4,2.7s1.1,1.6,1.2,2.5-.1,1.8,0,2.7.4,1.7.6,2.6c.2.9.5,1.7.8,2.6.3.8.9,1.6,1.2,2.4.3.8.6,1.7,1,2.5.3.8.9,1.5,1.3,2.3.4.8.3,1.8.7,2.6-.5.7-1.1,1.3-1.6,2.1-.5.7-1.2,1.4-1.7,2.1-.5.7-.6,1.8-1.2,2.5s-1.2,1.4-1.8,2.1-1,1.5-1.5,2.2-1.6,1-2.2,1.7-.6,1.9-1.2,2.5-1.3,1.3-1.9,2c-.6.7-1.2,1.3-1.9,2s-1.2,1.3-1.9,2-1.5,1-2.2,1.7c-.6.6-1.2,1.3-1.9,1.9-.7.6-1.4,1.1-2.1,1.7s-1.4,1.1-2.1,1.7-1,1.6-1.8,2.2c-.7.6-1.7.7-2.5,1.3s-1.8,1-2.5,1.6-1.7,1.1-2.5,1.3-1.6.1-2.6-.7c-.6-.5-1.5-1-2.1-2-.5-.8-.5-1.9-.8-2.7-.4-.9-.8-1.7-1-2.5-.2-.9-1.1-1.7-1.2-2.6s.5-1.9.5-2.8c0-.9-.1-1.9,0-2.8.2-.9,0-1.9.4-2.8.3-.9.6-1.8,1-2.6.4-.8.8-1.7,1.3-2.5.4-.8.9-1.6,1.4-2.4s1.4-1.3,1.9-2,.8-1.6,1.4-2.4c.5-.7,1-1.6,1.5-2.3.6-.7,1.4-1.2,2-1.9s1.5-1.2,2-1.9c.6-.7,1-1.6,1.6-2.3.6-.7,1-1.6,1.6-2.2s1.2-1.4,1.8-2.1,1.4-1.3,1.9-1.9.9-1.6,1.4-2.3c.5-.7,1.7-1,2.2-1.7s.4-1.9.9-2.7c.5-.7.9-1.5,1.4-2.3s1.7-1,2.2-1.8c.5-.7.9-1.6,1.4-2.3s.5-1.9,1-2.6c.5-.7,1.6-1,2.2-1.7s.8-1.4,1.4-2.1Z"/>
    </g>
    <path class="st1" d="M890.3,727c.2.8-.4,1.3-.9,1.8-.6.5-1.1.9-1.8.6-.8-.3-1.9-.1-2.8-.5s-1.5-1.3-2.4-1.6c-.9-.3-1.8-.5-2.7-.8-.9-.4-1.7-.8-2.6-1.1s-1.7-1-2.5-1.3c-1.6-.6-1.3-.9-2.7-.7-1.4.2-1.2.3-2.6,1.3-.7.5-1.1,1.5-1.9,2.1-.7.5-1.8.7-2.6,1.2-.8.5-1.1,1.7-1.9,2.2-.8.5-1.6,1.1-2.3,1.6-.8.6-2.1.4-2.8.9-.9.6-2,.9-2.6.2-.4-.4-.4-1-.3-1.7,0-.9-.3-1.8-.2-2.8,0-.9,0-1.9,0-2.8,0-.9.5-1.9.5-2.8,0-1,0-1.9.1-2.8s0-2,0-2.8c.1-1.7.8-1.4.2-2.6-.6-1.3-.4-1-1.7-2.1-.6-.5-1.5-.9-2.4-1.5s-1.5-1.1-2.3-1.6-1.3-1.4-2-2c-.8-.6-2-.5-2.7-1.1-.8-.6-1.4-1.4-2.1-1.9-1-.8-1-2.3,0-3.2.2-.2.6-.1.9-.2.8-.2,1.7-.7,2.6-1s1.7-.9,2.6-1.1,1.9-.3,2.8-.5c.9-.2,1.9-.4,2.7-.6s2-.3,2.8-.5c1.6-.4,1.9.4,3-.6s0-1.4.6-3c.3-.8.5-1.7.9-2.7.3-.8.6-1.7.9-2.7.3-.9,1.1-1.6,1.4-2.5.3-.9.2-2,.5-2.8.3-.9.7-1.8.9-2.6.1-.3.1-.9.4-1.1.9-.9,2.8-.4,3.5.7.5.7,1.1,1.4,1.6,2.3.5.8.7,1.7,1.2,2.5.5.8,1,1.6,1.5,2.4s1.5,1.3,2,2.1.8,1.8,1.2,2.5c.9,1.4.3,1.4,1.5,2.1,1.2.7,1-.1,2.6-.1.8,0,1.8.3,2.8.3.9,0,1.8,0,2.8,0,.9,0,1.9-.2,2.8-.2.9,0,1.9,0,2.8,0s1.9,0,2.8,0c.6,0,.8,1,1.2,1.4.7.7.8,1.4,0,2.2-.5.7-1.1,1.5-1.7,2.2-.6.7-.9,1.6-1.5,2.4-.6.7-1,1.6-1.6,2.3s-1.3,1.5-1.8,2.1-1.5,1.4-2,2c-1.1,1.3-1.1.9-1.4,2.2s-.5,1.1,0,2.7c.2.8.5,1.7.8,2.7s1.2,1.5,1.5,2.5c.3.9.4,1.8.7,2.7s.8,1.7,1.1,2.6c.3.9.2,2,.5,2.8Z"/>
  </g>
  <g>
    <g>
      <path class="st0" d="M116.8,529.8c.7-.1.7-1.2.8-1.8.1-.9.5-1.8.6-2.8s0-1.9.1-2.9c0-.9.3-1.9.3-2.9s0-1.9,0-2.9.2-1.9.3-2.9c0-1,0-1.9,0-2.9,0-1,0-1.9,0-2.9s-.5-1.9-.5-2.9c0-1,.4-2,.3-2.9,0-1-.4-1.9-.4-2.9,0-1-.2-1.9-.3-2.9s.5-2,.4-2.9c0-1-.9-1.9-1-2.8s-.3-1.9-.4-2.8,0-1.7-.2-2.5c-.2-.8.2-1.8,0-2.6s-.4-1.7-.6-2.5-1-1.6-1.1-2.4c-.2-.9-.2-1.8-.3-2.6,0-1.2.2-2.2.4-3s1-1.6,1.9-2.2,1.5-.9,2.6-1.4c.9-.5,1.5-1.4,2.4-1.7s2,0,2.9-.1c1-.2,1.9-.5,2.8-.5s2,0,2.9.2c.9.2,1.7.8,2.6,1.2.9.4,1.9.5,2.7,1,.8.5,1.6,1.1,2.3,1.7.7.6.8,1.9,1.4,2.6s1.4,1.3,1.9,2.1,1.3,1.4,1.8,2.2.8,1.7,1.3,2.6c.5.8.7,1.8,1.1,2.6s1.4,1.5,1.7,2.4c.4.9.3,1.9.6,2.8.3.9.7,1.8.9,2.7.3.9.5,1.8.7,2.8s.2,1.9.4,2.8c.2.9.5,1.8.6,2.8.1.9.2,1.9.3,2.8.1.9.7,1.8.8,2.8,0,.9-.1,1.9,0,2.9s0,1.9,0,2.8c0,.9-.2,1.9-.2,2.8,0,.9-.2,1.9-.3,2.8,0,.9.3,1.9.3,2.8,0,.9.2,1.9.2,2.8,0,.9-.6,1.9-.6,2.8,0,.9,0,1.9,0,2.8s.2,1.9.2,2.8c0,.9,0,1.9-.1,2.8,0,.9.1,1.9,0,2.8,0,.9-.4,1.9-.4,2.8,0,.9,0,1.9,0,2.8s.3,1.9.4,2.8c0,.9-.3,1.9-.2,2.9,0,.9.1,1.9.3,2.8.1.9.4,1.9.5,2.8s1,1.7,1.2,2.7-.3,2,0,2.9c.2.9,1,1.7,1.3,2.6.2.9.4,1.8.7,2.7.3.9,0,2,.3,2.9.3.9,1.1,1.6,1.4,2.5.3.9,0,2,.3,2.9.3.9.8,1.7,1.1,2.6.3.9.5,1.8.9,2.7.3.9.7,1.7,1.1,2.6.3.9,1.3,1.5,1.6,2.4.3.9.6,1.8.9,2.7.3.9.4,1.9.7,2.8s.3,1.9.7,2.8.6,1.8.9,2.7.7,1.8.9,2.7.8,1.7,1.1,2.6c.3.9.5,1.8.8,2.7.2.9.8,1.7,1.1,2.6.2.9.3,1.8.5,2.7s0,1.9.2,2.8,1.1,1.6,1.3,2.5c.2.9-.2,1.9,0,2.8s.7,1.7.9,2.6.6,1.8.8,2.7c.2.9-.4,2-.2,2.9.2.9,1,1.7,1.1,2.6.2.9,0,1.9.2,2.8.2.9.4,1.8.6,2.7s.6,1.8.7,2.7c.2.9.2,1.8.4,2.8s0,1.9,0,2.8c.1.9.4,1.8.6,2.7.1.9.9,1.8,1,2.7.1.9-.4,1.9-.3,2.8s0,1.9,0,2.8.4,1.8.5,2.7c0,.9.6,1.8.7,2.7,0,.9-.4,1.9-.3,2.8s.4,1.8.4,2.8.5,1.9.5,2.8c0,.9-.2,1.9-.1,2.8s-.5,1.9-.5,2.8c0,.8.1,1.8,0,2.9,0,.9-.4,1.9-.5,2.9-.1,1,.2,2,0,2.9-.2,1-1,1.7-1.4,2.5-.5.9-.9,1.5-1.8,1.9-.8.3-1.6.8-2.7.5s-1.5-.4-2.4-.8c-.7-.3-1.3-1.1-2.1-1.5-.7-.4-1.7-.3-2.5-.7-.8-.4-1.4-1-2.2-1.4-.8-.4-1.6-.8-2.3-1.2-.9-.5-1.7-.8-2.3-1.1s-1.7-.8-2.5-1.2c-.8-.5-1.6-1-2.4-1.4-.8-.5-1.4-1.2-2.2-1.7s-1.8-.7-2.6-1.2-1.4-1.3-2.1-1.8c-.8-.5-1.7-.8-2.5-1.4-.8-.5-1.3-1.4-2.1-1.9-.8-.5-1.7-.8-2.5-1.4s-1.4-1.3-2.1-1.8c-.7-.6-1.5-1.2-2.2-1.7-.7-.6-1.9-.6-2.6-1.2s-1.4-1.3-2.1-1.9c-.7-.6-1.6-1.1-2.3-1.7s-1.1-1.6-1.8-2.2-1.3-1.3-2-2c-.7-.6-1.4-1.2-2.1-1.8-.7-.6-1.6-1-2.3-1.7-.7-.7-1-1.7-1.6-2.3-.7-.7-1.4-1.3-2-2-.6-.7-1.5-1.1-2.2-1.8-.6-.7-.7-1.8-1.4-2.5s-1.3-1.4-1.9-2.1c-.6-.7-1.4-1.3-1.9-2-.6-.7-1.6-1.1-2.1-1.9s-.8-1.8-1.3-2.5-1-1.5-1.6-2.3c-.6-.7-1.1-1.5-1.6-2.3-.5-.8-1-1.6-1.5-2.3-.5-.8-1.7-1.1-2.2-1.9s-.8-1.7-1.3-2.5c-.5-.8-.9-1.6-1.4-2.4s-.8-1.7-1.2-2.5c-.5-.8-1.5-1.3-2-2.1-.5-.8-.9-1.6-1.4-2.4-.5-.8-.8-1.7-1.3-2.5s-1.1-1.5-1.5-2.4c-.4-.8-.2-2-.6-2.8-.4-.8-.7-1.7-1.1-2.6s-.8-1.7-1.2-2.5-1.1-1.5-1.5-2.4c-.4-.9-.8-1.7-1.1-2.6-.4-.9-.3-1.9-.6-2.8s-.8-1.7-1.1-2.6-1-1.6-1.3-2.5-.8-1.7-1.1-2.6-.6-1.8-.9-2.7c-.3-.9,0-2-.3-2.8s-1-1.6-1.3-2.5c-.3-.9-.7-1.8-.9-2.7-.2-.9-.4-1.8-.6-2.7-.2-.9-.6-1.8-.8-2.7-.2-.9-.4-1.8-.6-2.7s.2-1.9,0-2.9-.5-1.8-.6-2.7-.7-1.8-.9-2.7.3-1.9.2-2.9c-.1-.9-.3-1.8-.4-2.8-.1-.9-.5-1.8-.6-2.7s0-1.9-.2-2.8-.8-1.8-.8-2.7.3-1.9.2-2.8c0-.9-.3-1.9-.3-2.8s.3-1.9.3-2.8,0-1.9-.1-2.8c0-.9-.2-1.9-.2-2.8,0-.9.3-1.9.3-2.8s-.3-1.9-.3-2.8-.1-1.9,0-2.8c0-.9.1-1.9.2-2.8,0-.9.9-1.8,1-2.7s0-1.9,0-2.8c0-.9.3-1.8.4-2.8.1-.9-.5-1.9-.4-2.9s1.1-1.7,1.2-2.7-.1-1.9,0-2.8.3-1.8.4-2.8.4-1.8.6-2.7c.2-.9.3-1.8.5-2.8.2-.9.8-1.7,1-2.6s.5-1.8.7-2.7c.2-.9-.1-2,.1-2.9.2-.9.5-1.8.7-2.7.3-.9.8-1.7,1.1-2.6s.9-1.7,1.2-2.5c.3-.9,0-2,.3-2.9.3-.9,1.2-1.5,1.5-2.4s.5-1.8.9-2.6c.3-.9.1-2,.5-2.8.3-.9,1.2-1.5,1.6-2.4s.1-2,.5-2.8c.4-.9,1.3-1.5,1.7-2.3.4-.8,1-1.6,1.4-2.4s.6-1.8,1-2.6.9-1.6,1.3-2.4c.4-.8.3-2,.7-2.8.4-.8,1.1-1.5,1.5-2.3s1.2-1.5,1.7-2.3.7-1.7,1.2-2.5c.5-.8,1.3-1.4,1.8-2.1s.4-1.9.9-2.7c.5-.8.9-1.6,1.5-2.4.5-.8,1.6-1.2,2.1-1.9s.6-1.8,1.2-2.6c.5-.8,1-1.5,1.6-2.3.6-.7,1.4-1.3,2-2,.6-.7,1.1-1.5,1.7-2.2s1.5-1.2,2.1-1.9c.6-.7,1.3-1.3,1.9-2,.6-.7,1.1-1.5,1.7-2.2.6-.7,1.1-1.5,1.7-2.2.6-.7,1.3-1.3,2-2s1.3-1.3,2-2,.8-1.7,1.6-2.5c.6-.6,1.9-.7,2.6-1.4s1-1.7,1.7-2.4c.7-.6,1.6-1,2.4-1.7.7-.6,1.2-1.6,1.9-2.2.7-.6,1.9-.8,2.6-1.4.7-.6,1.2-1.6,1.9-2.2s1.4-1.4,2.1-2c.8-.6,1.6-1.1,2.4-1.7.8-.6,2-.7,2.7-1.2,1-.6,1.5-1.7,2.2-2,1-.4,1.9.2,2.7.4.9.2,1.8.2,2.4,1,.5.7.5,1.7.9,2.6.3.8.9,1.6,1.1,2.5s.2,1.9.3,2.7-.3,1.9-.4,2.7c0,.9.3,1.9.2,2.8s-.6,1.8-.9,2.6c-.3.9,0,2-.4,2.8-.4.8-1.2,1.5-1.6,2.3-.4.8-.7,1.8-1.2,2.6-.5.8-1.3,1.4-1.8,2.1-.6.7-1.2,1.4-1.8,2.1-.6.7-1.3,1.3-1.9,2s-1.5,1.2-2.1,1.9c-.6.7-.8,1.7-1.5,2.4s-1,1.5-1.6,2.3c-.6.7-1.8,1-2.3,1.7-.6.7-1.1,1.5-1.7,2.2-.5.7-1.1,1.5-1.6,2.2-.5.7-.4,2-.9,2.7s-1.6,1.1-2.1,1.9-1,1.5-1.5,2.3-.8,1.6-1.3,2.4c-.5.8-.6,1.8-1,2.6-.5.8-.8,1.6-1.3,2.4-.5.8-1.4,1.3-1.9,2.1s-.5,1.8-.9,2.6c-.4.8-1.2,1.4-1.6,2.2s-.5,1.8-.9,2.6c-.4.8-.9,1.6-1.2,2.5-.4.8-.9,1.6-1.2,2.5-.3.9-.6,1.7-.9,2.6s0,1.9-.2,2.8-.9,1.6-1.1,2.5c-.2.9-.7,1.7-.9,2.6-.2.9-.4,1.8-.6,2.7-.2.9.1,1.9,0,2.8-.2.9-.6,1.7-.7,2.6-.1.9-.7,1.8-.8,2.7s-.3,1.8-.4,2.7c0,.9.4,1.9.4,2.9,0,1,.3,1.9.2,2.8,0,1-.3,1.9-.3,2.8,0,1,.2,1.9.3,2.8,0,1,0,1.9.2,2.8s-.3,1.9-.2,2.9.6,1.8.8,2.8.2,1.9.4,2.8,0,1.9.2,2.9c.2.9.5,1.8.7,2.8.2.9.7,1.8,1,2.7.3.9.2,2,.5,2.8s.6,1.8.9,2.7c.4.9,1.4,1.5,1.8,2.3.4.9.3,2,.7,2.8.4.8.9,1.9,1.4,2.7Z"/>
      <path class="st0" d="M172.4,407c.6.4,1.5.9,2.1,1.9s.4,1.9.8,2.8.7,1.8,1,2.6c.4,1.1.7,2,.8,2.6.2,1,.7,1.9.7,2.8,0,1,.1,1.9,0,2.9,0,1-.4,1.9-.5,2.8-.1,1,.1,2-.1,2.9-.2.9-.5,1.9-.9,2.7-.4.9-1.1,1.6-1.5,2.4s-1.2,1.5-1.7,2.2c-.5.8-1,1.6-1.6,2.3-.6.7-1.3,1.3-1.9,2.1-.6.7-.7,1.9-1.4,2.6-.7.7-1.7,1-2.4,1.7s-1,1.6-1.7,2.3c-.7.7-1.3,1.3-2,2-.7.7-1.4,1.3-2,2-.6.7-1.4,1.3-2,2s-1,1.6-1.6,2.4c-.4.5-1.3,1.1-1.9,1.9s-1.1,1.4-1.6,2.2-1,1.5-1.5,2.3-1,1.5-1.5,2.2c-.7.9-.8,2.1-1.3,2.5-.5.4-.6,0-1.4-.4-.5-.2-1.4-.4-2.1-1.1-.6-.5-1.3-1-1.9-1.6-.7-.6-1-1.6-1.5-2-.7-.5-1.7-.6-2.5-1-.8-.4-1.4-1.1-2.2-1.4-.8-.3-1.8-.2-2.6-.4-.9-.2-1.7,0-2.6-.2s-1.7-.6-2.6-.5-1.7.3-2.6.5c-.8.2-1.7.5-2.5.8-.3-.3,0-1,.7-2.4s.2-1.8.7-2.6c.4-.7,1.1-1.4,1.6-2.2.4-.7.7-1.6,1.2-2.4.5-.7,1.5-1.1,2-1.9.5-.7.8-1.6,1.3-2.4.5-.7.8-1.7,1.3-2.4s1.4-1.3,1.9-2c.5-.8,1.2-1.4,1.7-2.1s1.1-1.5,1.6-2.2c.6-.8.8-1.8,1.2-2.4.8-1.1,1.5-1.7,1.7-2,.5-.7.8-1.6,1.4-2.4s1.5-1,2.2-1.8.8-1.7,1.5-2.4c.6-.7,1.7-.9,2.4-1.6s.8-1.8,1.4-2.5c.6-.7,1.2-1.4,1.9-2,.6-.7,1.6-1,2.3-1.7s1.1-1.5,1.8-2.1c.7-.6,1.9-.7,2.5-1.3s1.4-1.2,2.1-1.8c.7-.6,1.1-1.7,1.8-2.2.8-.6,1.5-1.2,2.2-1.7.8-.5,1.7-1,2.4-1.4.8-.4,1.9-.4,2.8-.6.9-.2,1.6-.1,2.5.5Z"/>
      <path class="st0" d="M160.5,550.3c-.1-.9-.5-1.8-.6-2.7s.7-1.9.6-2.8-.3-1.8-.4-2.7c0-.9-.2-1.8-.2-2.7s.2-1.8.2-2.7c0-.9-.6-1.8-.6-2.8,0-.9,1-1.8,1-2.7,0-.9-.4-1.8-.3-2.8,0-.9-.2-1.9-.1-2.8,0-.9.6-1.8.7-2.7,0-.9-.5-1.9-.4-2.8,0-.9.4-1.8.5-2.7,0-.9-.3-2-.3-2.9.5-.8,1.4-1.5,2-2.3s1.3-1.5,1.8-2.3c.5-.8.9-1.7,1.5-2.5.5-.8,1.3-1.5,1.8-2.3s1-1.6,1.6-2.4c.6-.8,1.4-1.3,2-2.1s1-1.7,1.6-2.4c.6-.8.9-1.8,1.4-2.5.6-.8,1-1.7,1.6-2.4.6-.7,1.6-1.2,2.2-1.9.7-.8.9-1.9,1.6-2.7.7-.8,2-.9,2.7-1.7.7-.7,1.3-1.6,2-2.4s1.2-1.7,2-2.4c.4-.4,1.2-1,2.1-1.8s1.4-1.1,2.1-1.7,1.6-1,2.3-1.5c1-.7,1.8-1.2,2.3-1.5s.9-.4,1.4-.4c.7.1,1,.9,1.3,1.5.6,1.1,1.3,2.1,1.7,3.3.3,1,.6,1.9.8,2.9.2,1,.8,2,.8,3s-.3,1.7-.4,2.6c-.1.8-.4,1.7-.6,2.5-.2.8-.6,1.6-.8,2.4-.3.8-.1,1.8-.4,2.6-.3.8-.8,1.5-1.2,2.3-.4.8-.7,1.6-1.1,2.3-.4.8-1,1.4-1.4,2.2s-1.3,1.2-1.8,1.9c-.5.8-.9,1.6-1.5,2.4-.6.8-1.4,1.3-1.9,2.1-.6.8-1.1,1.5-1.7,2.3-.6.8-1,1.6-1.6,2.3-.6.8-1.1,1.5-1.7,2.2-.6.7-.5,2-1.1,2.7-.6.7-1.2,1.4-1.8,2.2-.5.8-1.5,1.2-2,2s-.8,1.7-1.3,2.5-1,1.5-1.5,2.3-1.3,1.4-1.7,2.2-1.1,1.5-1.5,2.4c-.4.8-.5,1.8-.9,2.7s-.8,1.7-1.2,2.5-.8,1.7-1.2,2.5c-.2.4-.7,1.3-1.2,2.6-.3.8-.2,1.9-.5,2.8s-.7,1.7-1.1,2.6-.8,1.8-1.1,2.7c-.3.9-.6,1.9-.9,2.7-.4,1-.6,2-.9,2.7-.6,1.5-1.3,2.2-1.5,2.2-.5-.7-1-1.5-1.3-2.5s-1-1.8-1.2-2.8c-.2-1-.3-2.1-.5-2.9Z"/>
      <path class="st0" d="M160.9,504.1c-.3-.8-.3-1.5-.4-2.3-.1-.9-.4-1.7-.4-2.6s0-1.8,0-2.6c0-.9.2-1.8,0-2.7s-.7-1.7-.9-2.6,0-1.8-.2-2.7-.5-1.7-.8-2.6c-.2-.9-.5-1.7-.8-2.6-.3-.8-.4-1.8-.7-2.6-.3-.8-1.2-1.5-1.5-2.3-.3-.8,0-1.9-.4-2.7-.4-.8-1.5-1.4-1.9-2.2.5-.7,1.5-1.3,2.1-2,.5-.7.7-1.7,1.3-2.4s1.4-1.2,2-1.9.7-1.7,1.3-2.5,1.7-1,2.2-1.7c.6-.7.6-1.8,1.2-2.5s1-1.5,1.6-2.2,1.8-.8,2.4-1.5c.6-.7,1.1-1.4,1.7-2.1.6-.7,1.4-1.2,2-1.8s1-1.5,1.7-2.1c.6-.6,1.2-1.4,1.9-2,.7-.6,1.6-.9,2.3-1.5.7-.6,1.4-1.1,2.1-1.7s1-1.7,1.7-2.2c.7-.6,1.6-.9,2.4-1.4s1.9-.9,2.6-1.5c.9-.7,1.6-1.4,2.4-1.5.9-.2,1.6,0,2.6.8.6.5,1.1,1.2,1.8,2.3.5.8,1.4,1.4,1.7,2.2s.2,1.9.4,2.8c.2.9.5,1.7.6,2.6s.5,1.8.5,2.7c0,.9-.3,1.8-.5,2.7-.2.9-.6,1.7-.9,2.6-.3.9-.9,1.6-1.2,2.4s0,2-.4,2.9c-.4.8-1.4,1.3-1.9,2.1-.5.8-.8,1.7-1.3,2.4-.5.8-1.4,1.3-1.9,2-.5.7-.8,1.7-1.3,2.4-.6.7-1.5,1.1-2.1,1.8-.6.7-1.3,1.3-1.9,2-.6.7-.8,1.7-1.4,2.4s-1,1.6-1.6,2.3c-.6.7-1.4,1.2-2,1.9s-1.5,1.2-2.1,1.9c-.6.7-.7,1.8-1.2,2.5-.5.7-1.5,1.1-2,1.9-.5.7-.9,1.6-1.4,2.3-.5.7-1.4,1.2-1.9,2-.5.7-.4,1.9-.9,2.7-.5.7-1.1,1.4-1.6,2.2-.5.7-1,1.5-1.5,2.2s-1.6,1-2.2,1.8-.7,1.5-1.3,2.1Z"/>
    </g>
    <path class="st1" d="M192.6,355.7c-.2-.8.2-1.5.8-2.1s1.4-.9,2.1-.6c.8.3,1.6.9,2.5,1.2.8.3,1.6.9,2.5,1.2.9.3,1.9.3,2.8.6.9.4,1.7.8,2.6,1.1s1.9.6,2.7.9c1.6.6,1.1,1.2,2.5,1,1.4-.2.7-.8,2.1-1.7.7-.5,1.5-.9,2.4-1.5.7-.5,1.7-.8,2.5-1.3.8-.5,1.7-.9,2.4-1.4.8-.5,1.3-1.5,2-2s1.4-1.4,2.1-1.9c.9-.6,2.7-.4,3.3.3.4.4.3,1.2.3,1.8,0,.9-.4,1.8-.5,2.8,0,.9.6,1.9.5,2.8,0,.9-.9,1.8-1,2.7,0,1,.3,1.9.2,2.8s.1,2,0,2.8c-.1,1.7-1,1.5-.4,2.7.6,1.3,1,.5,2.3,1.5.6.5,1.2,1.4,2,2,.7.5,1.7.7,2.5,1.3s1.2,1.5,1.9,2.1,1.7.9,2.4,1.5c.8.6,1.2,1.5,1.9,2.1,1,.8,1.3,1.9.4,2.8-.2.2-.5.4-.9.4-.8.2-1.7.4-2.7.7s-1.7.8-2.6,1c-.9.2-1.8.5-2.7.7-.9.2-1.8.7-2.7.9-1,.3-2.1,0-2.8.2-1.6.4-1.8-.3-2.8.7s-.5,1.1-1.1,2.7c-.3.8,0,1.9-.4,2.8s-.7,1.7-1,2.6c-.3.9-.4,1.8-.7,2.7s-1.2,1.6-1.5,2.4c-.3.9,0,2.1-.2,2.9-.1.3-.5.7-.7,1-.9.9-3,.6-3.7-.5-.5-.7-1-1.5-1.5-2.3s-.7-1.7-1.2-2.5c-.5-.8-1.1-1.5-1.6-2.3-.5-.8-.9-1.7-1.4-2.4-.6-.9-1-1.7-1.4-2.4-.9-1.4-.6-1.2-1.8-1.9-1.2-.7-.9-.4-2.6-.4-.8,0-1.8-.3-2.8-.3-.9,0-1.8,0-2.8,0-.9,0-1.9,0-2.8,0-.9,0-1.9.4-2.8.3-1,0-1.9-.6-2.8-.6-.6,0-1-.1-1.3-.5-.7-.7-1.3-2-.6-2.9.5-.7,1.6-1,2.2-1.8.6-.7,1-1.6,1.6-2.3s.9-1.7,1.5-2.4c.6-.8,1.2-1.5,1.8-2.2s1.3-1.5,1.8-2.1c1.1-1.3,1.4-.6,1.7-2s.2-1-.3-2.6c-.2-.8-.8-1.6-1-2.6-.3-.8-.7-1.7-1-2.6-.3-.9-.2-1.9-.5-2.8s-.2-1.9-.5-2.8c-.3-.9-.9-1.7-1.2-2.6Z"/>
  </g>
</svg>